<?xml version="1.0" standalone="no"?>
<!DOCTYPE svg PUBLIC "-//W3C//DTD SVG 1.1//EN" "http://www.w3.org/Graphics/SVG/1.1/DTD/svg11.dtd" >
<svg xmlns="http://www.w3.org/2000/svg">
<metadata></metadata>
<defs>
<font id="i_shot_the_serifregular" horiz-adv-x="987" >
<font-face units-per-em="2048" ascent="1536" descent="-512" />
<missing-glyph horiz-adv-x="921" />
<glyph unicode="&#x30;&#x2f;&#x30;" horiz-adv-x="1236" d="M-12 1139q0 63 15 119.5t47 99.5t80 67.5t114 24.5q63 0 111 -23.5t80 -65.5t48.5 -98.5t16.5 -123.5q0 -61 -14.5 -118.5t-45 -100.5t-80 -69t-116.5 -26q-127 0 -191.5 89.5t-64.5 224.5zM123 0l678 1434h203l-678 -1434h-203zM135 1139q0 -33 5 -64t18.5 -54.5 t34 -37.5t51.5 -14q59 0 84.5 50t25.5 120q0 27 -4 56.5t-16 54t-33.5 41t-56.5 16.5t-56.5 -16.5t-33 -41t-15.5 -54t-4 -56.5zM623 297q0 63 15 119.5t47 99.5t80 67.5t114 24.5q63 0 111 -23.5t80 -65.5t48.5 -98t16.5 -124q0 -61 -14.5 -118.5t-45.5 -100.5t-80 -68.5 t-116 -25.5q-127 0 -191.5 89t-64.5 224zM770 297q0 -33 5 -63.5t18.5 -54t34 -38t51.5 -14.5q59 0 84.5 50t25.5 120q0 27 -4 56.5t-16.5 54t-34 41t-55.5 16.5q-35 0 -56.5 -16.5t-33 -41t-15.5 -54t-4 -56.5z" />
<glyph unicode="&#x31;&#x2f;&#x34;" horiz-adv-x="1081" d="M2 1509l33 -127h49v-567h129v694h-211zM94 -16l475 1554h183l-476 -1554h-182zM453 139h315v-139h131v139h80l-41 125h-39v430h-131l-315 -430v-125zM600 264l168 228v-228h-168z" />
<glyph unicode="&#x31;&#x2f;&#x32;" horiz-adv-x="1134" d="M2 1509l33 -127h49v-567h129v694h-211zM94 -16l475 1554h183l-476 -1554h-182zM545 0h487l-33 127h-305q18 43 69.5 74.5t105 68.5t95.5 88.5t42 135.5q0 94 -60.5 155.5t-171.5 61.5q-31 0 -69.5 -12.5t-74.5 -38t-60.5 -65.5t-24.5 -95h139q0 41 28.5 62.5t61.5 21.5 q45 0 72.5 -22.5t27.5 -67.5q0 -47 -24.5 -79t-61 -58.5t-78.5 -52t-79 -58.5t-61.5 -79t-24.5 -112v-55z" />
<glyph unicode="&#x33;&#x2f;&#x34;" horiz-adv-x="1243" d="M0 999q0 -53 24.5 -91t59.5 -62.5t74 -35.5t69 -11q106 0 167 58t61 149q0 49 -20.5 95t-61.5 79q25 29 38 61.5t13 63.5q0 90 -54.5 147t-156.5 57q-92 0 -147.5 -51t-55.5 -127h129q0 47 74 51q35 0 57.5 -19.5t22.5 -57.5q0 -35 -13.5 -51.5t-25.5 -18.5h-74l-28 -127 h92q43 0 61.5 -30.5t18.5 -71.5q0 -39 -28 -59.5t-69 -20.5q-31 0 -59.5 19.5t-28.5 53.5h-139zM238 -16l475 1554h182l-475 -1554h-182zM614 139h316v-139h131v139h80l-41 125h-39v430h-131l-316 -430v-125zM762 264l168 228v-228h-168z" />
<glyph unicode="&#xfb01;" horiz-adv-x="899" d="M0 840v184h100v127q0 61 22.5 113.5t62.5 89.5t94.5 58.5t117.5 21.5h80v-185h-57q-49 0 -82 -25.5t-33 -82.5v-117h479v-1024h-204v840h-275v-840h-205v840h-100zM565 1335q0 47 35 81t82 34t81 -34t34 -81t-34 -81.5t-81 -34.5t-82 34.5t-35 81.5z" />
<glyph unicode="&#xfb02;" horiz-adv-x="1058" d="M0 840v184h100v127q0 57 20.5 107.5t57.5 87t86 59t109 27.5v2h411v-1141q0 -57 33 -83t82 -26h57v-184h-79q-63 0 -117.5 21.5t-94.5 58.5t-62.5 89t-22.5 114v966h-170q-45 -4 -75 -29.5t-30 -78.5v-117h107v-184h-107v-840h-205v840h-100z" />
<glyph horiz-adv-x="0" />
<glyph unicode="&#xd;" horiz-adv-x="921" />
<glyph horiz-adv-x="0" />
<glyph horiz-adv-x="0" />
<glyph unicode=" "  horiz-adv-x="921" />
<glyph unicode="&#x09;" horiz-adv-x="921" />
<glyph unicode="&#xa0;" horiz-adv-x="921" />
<glyph unicode="!" horiz-adv-x="333" d="M0 100q0 47 35 81t82 34t80.5 -34t33.5 -81t-33.5 -81.5t-80.5 -34.5t-82 34.5t-35 81.5zM12 356v1160l164 20h41v-1180h-205z" />
<glyph unicode="&#x22;" horiz-adv-x="636" d="M0 1264l100 272h168l-162 -272h-106zM266 1264l101 272h168l-162 -272h-107z" />
<glyph unicode="#" horiz-adv-x="1390" d="M0 393v182h250l90 371h-197v182h240l98 410h203l-98 -410h309l98 410h203l-98 -410h190v-182h-233l-90 -371h180v-182h-223l-99 -409h-202l98 409h-309l-99 -409h-202l98 409h-207zM453 575h309l90 371h-309z" />
<glyph unicode="$" horiz-adv-x="1243" d="M35 205l145 172q74 -63 158 -104.5t174 -55.5v412q-80 12 -149.5 46t-119.5 86t-80 120.5t-30 148.5q0 88 31 157.5t83 122t120.5 86.5t144.5 46v237l164 21h41v-258q98 -18 188 -66.5t164 -113.5l-123 -181q-104 100 -229 133v-399q205 -45 314.5 -143.5t109.5 -263.5 q0 -94 -35 -167t-93.5 -124t-135 -82t-160.5 -43v-238h-205v236q-270 25 -477 215zM369 1028q0 -78 43 -117t100 -55v354q-61 -20 -102 -65t-41 -117zM717 219q76 16 132 61.5t56 127.5q0 47 -15.5 80.5t-41 55t-60 35t-71.5 21.5v-381z" />
<glyph unicode="&#x26;" horiz-adv-x="1363" d="M86 412q0 115 67.5 195.5t186.5 137.5q-53 53 -97 126t-44 155q0 80 22.5 149.5t67.5 123t110.5 87t149.5 44.5q12 2 24.5 3t22.5 1h20q12 0 23.5 -1t26.5 -3q84 -10 149.5 -44t109.5 -87.5t67.5 -123t23.5 -149.5q0 -109 -72 -201t-188 -137q92 -66 167.5 -131 t131.5 -145l75 65l132 -184q-23 -18 -51.5 -42t-63.5 -50q23 -94 22 -201h-225q0 18 -1 36.5t-3 35.5q-80 -39 -167 -63.5t-177 -24.5q-119 0 -213 32.5t-160.5 89t-101.5 135t-35 171.5zM315 412q0 -102 80 -155.5t201 -53.5q61 0 129.5 22.5t138.5 59.5q-61 98 -154.5 177 t-199.5 152q-106 -41 -150.5 -91t-44.5 -111zM428 1026q0 -55 39 -108.5t92 -92.5l74 17q27 6 53.5 20.5t49 38t36.5 54t14 71.5q0 88 -47 136t-125 52q-86 -2 -136 -49t-50 -139z" />
<glyph unicode="'" horiz-adv-x="329" d="M-41 1264l100 272h168l-161 -272h-107z" />
<glyph unicode="(" horiz-adv-x="479" d="M0 82v1085q0 61 22.5 113.5t62.5 89.5t94 58.5t118 21.5h80v-184h-58q-49 0 -81.5 -26t-32.5 -83v-1065q0 -57 32.5 -82.5t81.5 -25.5h58v-185h-80q-63 0 -117.5 21.5t-94.5 58.5t-62.5 89t-22.5 114z" />
<glyph unicode=")" horiz-adv-x="479" d="M0 -16h57q49 0 82 25.5t33 82.5v1065q0 57 -33 83t-82 26h-57v184h80q63 0 117.5 -21.5t94.5 -58.5t62.5 -89t22.5 -114v-1085q0 -61 -22.5 -113.5t-62.5 -89.5t-94.5 -58.5t-117.5 -21.5h-80v185z" />
<glyph unicode="*" horiz-adv-x="589" d="M0 1206l109 62l-109 61l66 117l116 -68v131h133v-125l107 62l65 -117l-108 -61l108 -62l-65 -114l-107 59v-127h-133v133l-116 -65z" />
<glyph unicode="+" horiz-adv-x="1021" d="M0 598v182h348v346l164 21h41v-367h367v-182h-367v-367h-205v367h-348z" />
<glyph unicode="," horiz-adv-x="333" d="M0 100q0 47 35 81t82 34t80.5 -34t33.5 -81q0 -29 -12 -53l-92 -250h-66l41 189q-43 4 -72.5 36.5t-29.5 77.5z" />
<glyph unicode="-" horiz-adv-x="1021" d="M0 598v182h920v-182h-920z" />
<glyph unicode="." horiz-adv-x="333" d="M0 100q0 47 35 81t82 34t80.5 -34t33.5 -81t-33.5 -81.5t-80.5 -34.5t-82 34.5t-35 81.5z" />
<glyph unicode="/" horiz-adv-x="677" d="M0 -16l373 1554h202l-372 -1554h-203z" />
<glyph unicode="0" horiz-adv-x="1261" d="M0 721q0 150 35 283t106.5 232t180 156.5t258.5 57.5q141 0 249.5 -56.5t181 -154.5t110.5 -231.5t38 -286.5q0 -147 -32.5 -281.5t-103.5 -236t-180.5 -160.5t-262.5 -59q-145 0 -254 56t-180.5 154.5t-108.5 233.5t-37 293zM229 721q0 -98 17.5 -191.5t58.5 -166 t108.5 -115.5t166.5 -43q94 0 161.5 41t108.5 111.5t60.5 164.5t19.5 199q0 80 -13.5 168t-51.5 162.5t-106.5 124t-178.5 51.5q-113 -2 -181.5 -51.5t-106.5 -124t-50.5 -162.5t-12.5 -168z" />
<glyph unicode="1" horiz-adv-x="471" d="M0 1214l61 220h308v-1434h-226v1214h-143z" />
<glyph unicode="2" horiz-adv-x="1097" d="M0 0v117q0 133 52 225t132 159.5t171 120t171 106.5t132.5 118.5t52.5 159.5q0 111 -68 168t-172 57q-41 0 -82 -13.5t-72.5 -39t-52 -65.5t-20.5 -93h-244q0 115 50 195.5t123 133t155 77t143 24.5q109 0 196 -33t147 -92t93 -141t33 -178q0 -117 -47 -203t-119 -150.5 t-157 -116t-161.5 -99.5t-133 -99t-70.5 -119h682l61 -219h-995z" />
<glyph unicode="3" horiz-adv-x="1042" d="M0 397h244q0 -47 20.5 -82.5t52 -60.5t72.5 -38t82 -13q104 0 172 53t68 156q0 39 -11.5 78.5t-35 72.5t-60.5 54.5t-88 23.5h-205l62 219h145q20 0 44 11.5t43.5 32t31.5 51t12 71.5q0 104 -57 154.5t-152 50.5q-96 -4 -146 -46t-50 -104h-224q0 78 30 145.5t85 117 t132 78t173 28.5q104 0 186.5 -32t137.5 -88t85 -134t30 -170q0 -68 -32 -138.5t-91 -123.5q90 -59 137 -152.5t47 -199.5q0 -92 -33 -171t-93 -135.5t-147 -89t-196 -32.5q-61 0 -143 23.5t-155 73.5t-123 129t-50 187z" />
<glyph unicode="4" horiz-adv-x="1124" d="M0 328v219h6l647 887h226v-887h82l61 -219h-143v-328h-226v328h-653zM279 547h374v512z" />
<glyph unicode="5" horiz-adv-x="1046" d="M4 397h244q0 -47 20.5 -82.5t52 -60.5t72.5 -38t82 -13q104 0 172 62.5t68 187.5q0 49 -14.5 97t-44 86t-75.5 62.5t-112 24.5l-424 6v705h889l-62 -220h-602v-294l199 -2q111 0 199 -38t149.5 -102.5t94 -148.5t32.5 -176q0 -102 -32.5 -187.5t-93 -149t-147.5 -98 t-196 -34.5q-61 0 -143 23.5t-155 73.5t-123 129t-50 187z" />
<glyph unicode="6" horiz-adv-x="1107" d="M0 758v125q0 125 35 228t102.5 179t163.5 118t219 42q57 0 137 -20.5t152 -65.5t122 -114.5t50 -168.5h-244q0 39 -20.5 67t-52 46t-70.5 27.5t-74 9.5q-131 0 -211 -84t-80 -264v-19q66 25 134.5 39.5t146.5 14.5q117 0 208 -38t155.5 -102.5t98.5 -148.5t34 -176 q0 -102 -36 -187.5t-101.5 -149t-160 -98t-212.5 -34.5q-66 0 -151 30.5t-160.5 96t-128 167t-52.5 242.5zM229 520q0 -74 26 -133t64.5 -99t86 -62.5t90.5 -22.5q123 0 201.5 62.5t78.5 187.5q0 49 -15.5 97t-47 86t-82.5 62.5t-121 24.5q-82 0 -150.5 -15.5t-130.5 -37.5 v-150z" />
<glyph unicode="7" horiz-adv-x="960" d="M4 1214l62 220h792v-220l-582 -1214h-241l581 1214h-612z" />
<glyph unicode="8" horiz-adv-x="1042" d="M-49 412q0 106 47 199.5t135 152.5q-57 53 -89 123.5t-32 138.5q0 90 31 168t88 134t137 89t178 33h11q88 -2 165.5 -34t134 -88t89.5 -133t33 -169q0 -68 -32 -138.5t-91 -123.5q90 -59 137 -152.5t47 -199.5q0 -92 -31.5 -171t-92 -135.5t-149.5 -89t-202 -32.5h-41 q-115 0 -203 32.5t-147.5 89t-91 135t-31.5 171.5zM180 412q0 -102 65.5 -155.5t178.5 -53.5h41q113 0 179.5 53.5t66.5 155.5q0 39 -11.5 78.5t-35 72.5t-60.5 54.5t-88 23.5h-141q-51 -2 -88 -23.5t-60.5 -54.5t-35 -72.5t-11.5 -78.5zM242 1026q0 -78 41 -120t82 -46h153 q20 0 44 11.5t43.5 32t31.5 51t12 71.5q0 86 -50 140.5t-140 64.5h-27q-88 -10 -139 -61.5t-51 -143.5z" />
<glyph unicode="9" horiz-adv-x="1107" d="M0 965q0 106 34 195t97.5 153.5t153.5 100.5t204 36q68 0 157 -32t168 -98.5t133 -171t54 -251.5l5 -238v-124q0 -121 -35 -221.5t-102.5 -174t-164 -114.5t-219.5 -41q-59 0 -138 20.5t-150.5 63.5t-121.5 109.5t-50 158.5h243q0 -33 20.5 -57.5t52.5 -41t71 -25.5 t73 -9q131 0 211 82t80 250v16q-66 -23 -134.5 -37t-145.5 -14q-117 0 -208 37.5t-155.5 102.5t-98.5 148.5t-34 176.5zM229 965q0 -49 15.5 -97.5t47.5 -86.5t82 -62.5t122 -24.5q82 0 150.5 14.5t129.5 36.5v152q0 80 -27.5 141.5t-69.5 104.5t-92 65.5t-98 22.5 q-113 0 -186.5 -65.5t-73.5 -200.5z" />
<glyph unicode=":" horiz-adv-x="333" d="M0 100q0 47 35 81t82 34t80.5 -34t33.5 -81t-33.5 -81.5t-80.5 -34.5t-82 34.5t-35 81.5zM0 920q0 47 35 80.5t82 33.5t80.5 -33.5t33.5 -80.5t-33.5 -82t-80.5 -35t-82 35t-35 82z" />
<glyph unicode=";" horiz-adv-x="391" d="M-41 -203l80 217q-39 33 -39 86q0 47 35 81t82 34t80.5 -34t33.5 -81q0 -41 -26 -73l-139 -230h-107zM0 920q0 47 35 80.5t82 33.5t80.5 -33.5t33.5 -80.5t-33.5 -82t-80.5 -35t-82 35t-35 82z" />
<glyph unicode="&#x3c;" horiz-adv-x="831" d="M0 588v227l729 606v-237l-584 -482l584 -481v-237z" />
<glyph unicode="=" horiz-adv-x="1021" d="M0 434v182h920v-182h-920zM0 762v182h920v-182h-920z" />
<glyph unicode="&#x3e;" horiz-adv-x="831" d="M0 -16v237l584 481l-584 482v237l729 -606v-227z" />
<glyph unicode="?" horiz-adv-x="1021" d="M0 1020q0 68 33 143.5t92 139t142 105.5t184 42q109 0 195.5 -35t147 -95t93.5 -141t33 -173q0 -94 -35 -162t-86 -120t-112.5 -95t-113 -89t-86 -102.5t-34.5 -136.5h-205q0 106 33.5 182t86 132.5t112 100.5t111.5 87t86 90t34 113q0 115 -74 180t-186 65 q-61 0 -104.5 -24.5t-71 -60.5t-40 -75.5t-12.5 -70.5h-223zM236 100q0 47 34.5 81t81.5 34t81 -34t34 -81t-34 -81.5t-81 -34.5t-81.5 34.5t-34.5 81.5z" />
<glyph unicode="@" horiz-adv-x="1548" d="M20 717q0 152 56.5 286t153 233t226.5 156.5t277 57.5t277.5 -58.5t226.5 -158.5t152.5 -235.5t56.5 -286.5q0 -55 -13.5 -122t-45 -123t-88 -94t-142.5 -38q-51 0 -101 23.5t-93 88.5q-23 -23 -52.5 -40t-63.5 -29t-66.5 -18.5t-57.5 -6.5q-74 0 -136.5 28t-108.5 75 t-72.5 111.5t-26.5 138.5t26.5 137t73.5 110t109.5 74t134.5 27q66 0 127 -24.5t108.5 -71t75 -114t27.5 -153.5q0 -111 28.5 -152.5t67.5 -41.5q41 0 65.5 22.5t38 55t17.5 70.5t4 67q0 119 -43 223t-117.5 182t-175 124t-213.5 46q-115 0 -214 -45t-175 -122t-119 -180 t-43 -222t43 -222.5t119 -181t175 -123t214 -45.5q154 0 283 76l53 -155q-154 -82 -336 -82q-147 0 -277 57t-226.5 156.5t-153 233.5t-56.5 286zM532 705q0 -47 16.5 -86t42 -67t60.5 -42t72 -14q41 0 97.5 15t97.5 44v135q0 92 -47.5 149.5t-147.5 57.5q-35 0 -70 -11.5 t-61.5 -35t-43 -60t-16.5 -85.5z" />
<glyph unicode="A" horiz-adv-x="1308" d="M-10 0q82 379 213 736.5t311 697.5h180q180 -340 310.5 -697.5t212.5 -736.5h-232q-16 72 -34.5 144.5t-39.5 146.5h-616q-20 -74 -38.5 -146.5t-35.5 -144.5h-231zM362 510h484q-53 164 -115.5 318.5t-128.5 293.5q-66 -139 -126 -293.5t-114 -318.5z" />
<glyph unicode="B" horiz-adv-x="1075" d="M0 0v1434h477q102 0 184 -33t138.5 -90.5t87.5 -132t31 -160.5q0 -162 -105 -270q78 -59 119 -146.5t41 -187.5q0 -86 -31 -162t-87 -131t-138 -88t-185 -33h-532zM225 219h307q92 0 150.5 52.5t58.5 142.5t-58 148.5t-151 58.5h-307v-402zM225 840h252q90 0 150.5 44 t60.5 134t-60.5 143t-150.5 53h-252v-374z" />
<glyph unicode="C" horiz-adv-x="1284" d="M-10 721q0 129 30.5 259t105.5 234.5t199 170t312 65.5q98 0 183 -24.5t153.5 -67.5t120 -101.5t84.5 -128.5l-199 -92q-39 78 -123 134.5t-219 56.5t-217 -49.5t-126 -124t-59.5 -163.5t-15.5 -169q0 -84 15.5 -174t59.5 -167t126 -126t217 -49q131 0 221 63.5 t152 153.5l172 -125q-33 -66 -84 -123t-121 -99t-155 -66.5t-185 -24.5q-193 0 -317.5 65.5t-198.5 171t-102.5 237.5t-28.5 263z" />
<glyph unicode="D" horiz-adv-x="1155" d="M0 0v1434h223q195 0 350.5 -56.5t264 -168t167 -276.5t58.5 -382q0 -121 -37 -221.5t-105.5 -174t-167 -114.5t-221.5 -41h-532zM223 219h309q131 0 216.5 86t85.5 246q0 162 -42 287t-121 210t-192.5 128t-255.5 43v-1000z" />
<glyph unicode="E" d="M0 0v1434h885v-220h-660v-374h537v-219h-537v-402h660v-219h-885z" />
<glyph unicode="F" d="M0 0v1434h885v-220h-660v-374h537v-219h-537v-621h-225z" />
<glyph unicode="G" horiz-adv-x="1294" d="M0 721q0 129 30.5 259t105.5 234.5t199 170t312 65.5q98 0 183 -24.5t154 -67.5t120 -101.5t84 -128.5l-199 -92q-39 78 -123 134.5t-219 56.5t-217 -49.5t-126 -124t-59.5 -163.5t-15.5 -169q0 -84 15.5 -174t59.5 -167t126 -126t217 -49q109 0 186.5 44t137.5 109v91 h-338v217h559v-666h-221v63q-68 -39 -149 -59t-175 -20q-193 0 -317.5 65.5t-198.5 171t-102.5 237.5t-28.5 263z" />
<glyph unicode="H" horiz-adv-x="1105" d="M0 0v1434h225v-594h553v594h226v-1434h-226v621h-553v-621h-225z" />
<glyph unicode="I" horiz-adv-x="327" d="M0 0v1434h225v-1434h-225z" />
<glyph unicode="J" horiz-adv-x="1030" d="M0 297l172 125q47 -90 111.5 -153.5t158.5 -63.5q80 0 130.5 32.5t78 85t36.5 114t9 120.5v657h-530v220h756v-877q0 -100 -21.5 -202.5t-76 -184.5t-146.5 -134t-236 -52q-80 0 -150.5 24.5t-126.5 66.5t-98 99t-67 123z" />
<glyph unicode="K" horiz-adv-x="1009" d="M0 0v1434h225v-557l512 569l162 -158l-450 -500q100 -37 184 -103.5t145.5 -162.5t95 -226t33.5 -296h-225q0 104 -24.5 201.5t-75 178.5t-125 140.5t-174.5 83.5l-58 -65v-539h-225z" />
<glyph unicode="L" d="M0 0v1434h225v-1215h660v-219h-885z" />
<glyph unicode="M" horiz-adv-x="1185" d="M0 0v1434h313q125 -236 228 -490q51 125 107.5 247t121.5 243h313v-1434h-225v1118q-53 -113 -103 -234.5t-96 -250.5h-237q-90 258 -197 483v-1116h-225z" />
<glyph unicode="N" horiz-adv-x="1105" d="M0 0v1434h272q160 -262 287 -532.5t219 -557.5v1090h226v-1434h-359q-35 131 -81 269.5t-99 273.5t-114.5 266t-125.5 250v-1059h-225z" />
<glyph unicode="O" horiz-adv-x="1363" d="M-10 721q0 150 38 283t116.5 232t199.5 156.5t287 57.5q156 0 275.5 -56.5t200.5 -154.5t123 -231.5t42 -286.5q0 -147 -37 -281.5t-115 -236t-198.5 -160.5t-290.5 -59q-160 0 -281 56t-200.5 154.5t-119.5 233.5t-40 293zM219 721q0 -98 20.5 -191.5t67.5 -166 t127 -115.5t197 -43q111 0 189.5 41t127.5 111.5t71.5 164.5t22.5 199q0 80 -14 168t-59 162.5t-126 124t-212 51.5q-133 -2 -214 -51.5t-125 -124t-58.5 -162.5t-14.5 -168z" />
<glyph unicode="P" horiz-adv-x="1019" d="M0 0v1434h477q102 0 184 -33t138.5 -90.5t87.5 -132t31 -160.5t-31 -159t-87.5 -126t-138 -82.5t-184.5 -29.5h-252v-621h-225zM225 840h252q90 0 150.5 44t60.5 134q0 86 -58.5 139t-144.5 57h-260v-374z" />
<glyph unicode="Q" horiz-adv-x="1363" d="M-10 721q0 150 38 283t116.5 232t199.5 156.5t287 57.5q156 0 275.5 -56.5t200.5 -154.5t123 -231.5t42 -286.5q0 -115 -21.5 -220.5t-68.5 -195.5q43 -90 66.5 -201.5t23.5 -246.5h-225q0 125 -37 239q-72 -53 -166 -82.5t-213 -29.5q-160 0 -281 56t-200.5 154.5 t-119.5 233.5t-40 293zM219 721q0 -98 20.5 -191.5t67.5 -166t127 -115.5t197 -43q88 0 154.5 25.5t113.5 72.5q-66 78 -164 126t-227 48v219q145 0 276 -41t236 -133q22 92 22 190v9q0 80 -14 168t-59 162.5t-126 124t-212 51.5q-133 -2 -214 -51.5t-125 -124t-58.5 -162.5 t-14.5 -168z" />
<glyph unicode="R" horiz-adv-x="1071" d="M0 0v1434h477q102 0 184 -33t138.5 -90.5t87.5 -132t31 -160.5q0 -117 -54.5 -207t-154.5 -139q119 -100 189.5 -265t70.5 -407h-226q0 119 -31.5 228.5t-96 195.5t-162 138t-228.5 56v-618h-225zM225 840h252q90 0 150.5 44t60.5 134q0 86 -58.5 139t-144.5 57h-260 v-374z" />
<glyph unicode="S" horiz-adv-x="1161" d="M-27 205l146 172q94 -80 201.5 -124t224.5 -44q51 0 104 10t96 33.5t71 61.5t28 94q0 80 -40 120.5t-99.5 60t-127 24.5t-124.5 16q-80 12 -150 46t-121 86t-80.5 120.5t-29.5 148.5q0 102 41 181t108.5 132.5t153.5 81t176 27.5q123 0 242.5 -52t214.5 -138l-123 -181 q-78 76 -162 111t-172 35q-47 0 -91 -12.5t-78 -38t-54.5 -62.5t-20.5 -86q0 -59 24.5 -94t62.5 -55.5t83 -29.5t84 -15q248 -37 383 -139.5t135 -286.5q0 -111 -46 -191t-121.5 -132t-172 -76.5t-196.5 -24.5q-162 0 -306.5 55t-263.5 166z" />
<glyph unicode="T" horiz-adv-x="1069" d="M0 1214v220h967v-220h-369v-1214h-225v1214h-373z" />
<glyph unicode="U" horiz-adv-x="1142" d="M0 557v877h225v-877q0 -57 11.5 -118.5t44 -113t92 -85t157.5 -35.5q74 2 127.5 31.5t88 77.5t52 110.5t17.5 132.5v877h225v-877q0 -113 -31.5 -216t-96 -183t-162 -127t-230.5 -47q-127 0 -224 45t-162.5 121.5t-99.5 181t-34 225.5z" />
<glyph unicode="V" horiz-adv-x="1308" d="M-10 1434h231q31 -141 73 -289t91 -292t104.5 -282.5t112.5 -261.5q59 123 114.5 261.5t104.5 282.5t91 291.5t73 289.5h232q-82 -379 -212.5 -736.5t-310.5 -697.5h-180q-180 340 -311 697.5t-213 736.5z" />
<glyph unicode="W" horiz-adv-x="1923" d="M-10 1434h231q31 -141 73 -289t91 -292t104.5 -282.5t112.5 -261.5q100 209 191 459q-59 164 -105.5 329t-83.5 337h232q31 -145 73 -295q23 76 41.5 149.5t34.5 145.5h232q-37 -170 -83.5 -336t-103.5 -328q43 -123 90 -238.5t97 -222.5q59 123 114 261.5t104.5 282.5 t91.5 291.5t72 289.5h232q-82 -379 -212 -736.5t-310 -697.5h-181q-59 113 -113 227.5t-104 233.5q-49 -119 -103.5 -233.5t-113.5 -227.5h-180q-180 340 -311 697.5t-213 736.5z" />
<glyph unicode="X" horiz-adv-x="1064" d="M-10 0q0 106 26.5 201.5t69.5 185.5t97.5 177t107.5 173q-45 84 -91 170t-83 173t-60.5 175t-23.5 179h237q0 -78 21.5 -152t52.5 -146.5t66.5 -141t66.5 -134.5h6q31 66 68 134.5t67.5 141t52 146.5t21.5 152h238q0 -90 -23.5 -178.5t-60.5 -175.5t-83 -173t-91 -170 q53 -86 106 -173t96.5 -177t71 -185.5t27.5 -201.5h-236q0 94 -25.5 177t-64.5 158t-84 143.5t-82 133.5q-37 -66 -82 -134t-84 -143t-64.5 -158t-25.5 -177h-235z" />
<glyph unicode="Y" horiz-adv-x="1060" d="M-10 1434h237q0 -90 26 -176.5t63.5 -169t81.5 -161.5t79 -153h4q35 74 79 153t82 161.5t63.5 168.5t25.5 177h238q0 -117 -39 -234t-96.5 -232.5t-123 -229t-118.5 -222.5v-516h-225v516q-53 109 -119 222.5t-123 229t-96 232.5t-39 234z" />
<glyph unicode="Z" horiz-adv-x="1021" d="M0 0v205q217 520 610 1009h-573v220h883v-217q-190 -217 -363.5 -474.5t-300.5 -523.5h664v-219h-920z" />
<glyph unicode="[" horiz-adv-x="479" d="M0 -201v1651h377v-180h-172v-1286h172v-185h-377z" />
<glyph unicode="\" horiz-adv-x="684" d="M6 1538h203l373 -1554h-203z" />
<glyph unicode="]" horiz-adv-x="479" d="M0 -16h172v1286h-172v180h377v-1651h-377v185z" />
<glyph unicode="^" horiz-adv-x="1320" d="M133 1024l430 514h225l431 -514h-236l-307 369l-307 -369h-236z" />
<glyph unicode="_" horiz-adv-x="1226" d="M0 0h1124v-182h-1124v182z" />
<glyph unicode="`" horiz-adv-x="456" d="M0 1741h209l145 -232h-106z" />
<glyph unicode="a" horiz-adv-x="917" d="M-10 295q0 70 23.5 129t66.5 103t104.5 70t139.5 26h286v63q-2 43 -22.5 75t-52 52.5t-69.5 30.5t-73 10q-61 0 -118.5 -15.5t-88.5 -66.5l-135 125q63 86 152.5 118t189.5 32q82 0 158 -25t134 -70t94 -111.5t36 -148.5v-692h-194l10 61q-43 -45 -106.5 -61t-118.5 -16 q-109 0 -188 24.5t-129 66.5t-74.5 98t-24.5 122zM184 295q0 -59 48.5 -93t173.5 -34q45 0 104 11t100 34v213h-286q-59 0 -99.5 -32t-40.5 -99z" />
<glyph unicode="b" horiz-adv-x="991" d="M0 0v1413l164 21h41v-410l-21 -111q59 76 132 105t151 29q205 0 313.5 -139.5t108.5 -379.5q0 -147 -34 -250.5t-92 -169t-136 -95t-164 -29.5q-72 0 -141.5 18t-116.5 59v-61h-205zM205 225q57 -27 118.5 -42t139.5 -15q123 0 172 87t49 267q-4 174 -49 253t-158 79 q-104 0 -164.5 -41t-107.5 -123v-465z" />
<glyph unicode="c" horiz-adv-x="931" d="M-10 516q0 111 31.5 208t92 169t147.5 113t196 41q113 0 208 -51.5t164 -129.5l-151 -137q-47 51 -98.5 80t-112.5 29q-76 0 -128 -26t-84 -69t-45 -101t-13 -126q0 -72 15 -131t48 -102t84 -68t123 -25q66 0 118 34t93 81l151 -137q-80 -84 -171 -134t-201 -50 q-115 0 -203 43t-146.5 116.5t-88 170t-29.5 202.5z" />
<glyph unicode="d" horiz-adv-x="991" d="M0 459v69q0 240 108.5 379.5t313.5 139.5q78 0 149.5 -29t130.5 -105h3l-21 111v389l164 21h41v-1434h-205v61q-47 -41 -116.5 -59t-141.5 -18q-86 0 -164 28.5t-136 88t-92 148.5t-34 210zM205 459q0 -133 50 -212t171 -79q78 0 139.5 15.5t118.5 41.5v465 q-47 82 -107.5 123t-164.5 41q-113 0 -158 -79t-49 -253v-63z" />
<glyph unicode="e" horiz-adv-x="1034" d="M-10 516q0 106 32.5 202.5t94 169.5t149.5 116t199 43q109 0 196 -41t147 -113t92 -169t32 -208q0 -18 -1 -36.5t-3 -39.5h-727q16 -113 83.5 -181.5t202.5 -68.5q72 0 130.5 31t101.5 78l151 -137q-86 -84 -180 -131t-211 -47q-113 0 -203 41t-153.5 112.5t-98 168.5 t-34.5 210zM207 629h508q-20 98 -79.5 153.5t-170.5 55.5t-174.5 -54.5t-83.5 -154.5z" />
<glyph unicode="f" horiz-adv-x="579" d="M0 840v184h100v127q0 61 22.5 113.5t62.5 89.5t94.5 58.5t117.5 21.5h80v-185h-57q-49 0 -82 -25.5t-33 -82.5v-117h107v-184h-107v-840h-205v840h-100z" />
<glyph unicode="g" horiz-adv-x="991" d="M0 459v69q0 240 108.5 379.5t313.5 139.5q78 0 149.5 -29t130.5 -105h3l-21 111h205v-1112q0 -84 -39 -149.5t-103.5 -110.5t-148.5 -69.5t-172 -24.5q-106 0 -201.5 31.5t-161.5 117.5l136 125q35 -51 102.5 -66.5t134.5 -15.5q41 0 85 10.5t80 32t59.5 52t23.5 73.5 v143q-47 -41 -116.5 -59t-141.5 -18q-86 0 -164 28.5t-136 88t-92 148.5t-34 210zM205 459q0 -133 50 -212t171 -79q78 0 139.5 15.5t118.5 41.5v465q-47 82 -107.5 123t-164.5 41q-113 0 -158 -79t-49 -253v-63z" />
<glyph unicode="h" horiz-adv-x="991" d="M0 0v1413l164 21h41v-410l-21 -111q59 76 132 105t151 29q205 0 313.5 -139.5t108.5 -379.5v-528h-205v522q-4 174 -49 253t-158 79q-104 0 -164.5 -41t-107.5 -123v-690h-205z" />
<glyph unicode="i" horiz-adv-x="319" d="M-14 1233q0 47 34.5 81t81.5 34t81 -34t34 -81t-33.5 -82t-81.5 -35q-47 0 -81.5 35t-34.5 82zM0 0v1024h205v-1024h-205z" />
<glyph unicode="j" horiz-adv-x="493" d="M0 -123h57q49 0 82 25.5t33 83.5v1038h205v-1049q0 -61 -22.5 -113t-62.5 -89t-94.5 -58.5t-117.5 -21.5h-80v184zM160 1233q0 47 34.5 81t81.5 34t81 -34t34 -81t-33.5 -82t-81.5 -35q-47 0 -81.5 35t-34.5 82z" />
<glyph unicode="k" horiz-adv-x="866" d="M0 0v1413l164 21h41v-787l344 385l149 -139l-299 -334q76 -33 142.5 -84t116 -121.5t78 -159t28.5 -194.5h-205q0 76 -22.5 145.5t-66.5 126t-110.5 93t-154.5 47.5v-412h-205z" />
<glyph unicode="l" horiz-adv-x="479" d="M0 283v1130l164 21h41v-1141q0 -57 32.5 -83t81.5 -26h58v-184h-80q-63 0 -117.5 21.5t-94.5 58.5t-62.5 89t-22.5 114z" />
<glyph unicode="m" horiz-adv-x="1673" d="M0 0v1024h205l-21 -111q59 76 132 105t151 29q125 0 214 -52.5t140 -150.5q66 117 149 160t179 43q205 0 313.5 -139.5t108.5 -379.5v-528h-205v522q-4 174 -49 253t-158 79q-104 0 -164.5 -41t-107.5 -123q0 -33 1 -70.5t1 -91.5v-528h-205v522q-4 174 -49 253t-158 79 q-104 0 -164.5 -41t-107.5 -123v-690h-205z" />
<glyph unicode="n" horiz-adv-x="991" d="M0 0v1024h205l-21 -111q59 76 132 105t151 29q205 0 313.5 -139.5t108.5 -379.5v-528h-205v522q-4 174 -49 253t-158 79q-104 0 -164.5 -41t-107.5 -123v-690h-205z" />
<glyph unicode="o" horiz-adv-x="1005" d="M-10 506q0 104 32.5 198.5t92 166t145.5 113.5t195 42q106 0 192 -40t144.5 -110.5t90 -166t31.5 -203.5q0 -104 -28.5 -198.5t-87 -166t-144.5 -114.5t-198 -43q-117 0 -204 43t-145.5 114.5t-87 166t-28.5 198.5zM193 506q0 -70 14 -128.5t46 -101.5t81 -66.5 t121 -23.5q68 0 115.5 30t79.5 76t46.5 102.5t14.5 111.5q0 145 -58.5 230t-197.5 85q-135 0 -198.5 -81.5t-63.5 -233.5z" />
<glyph unicode="p" horiz-adv-x="980" d="M0 -410v1434h205l-21 -111q59 76 132 105t151 29q205 0 313.5 -139.5t108.5 -379.5v-69q0 -121 -34 -210t-92 -148.5t-136 -88t-164 -28.5q-72 0 -141.5 18t-116.5 59v-471h-205zM205 225q57 -27 118.5 -42t139.5 -15q121 0 171 79t50 212v63q-4 174 -49 253t-158 79 q-104 0 -164.5 -41t-107.5 -123v-465z" />
<glyph unicode="q" horiz-adv-x="980" d="M-10 459v69q0 240 108.5 379.5t313.5 139.5q78 0 149.5 -29t130.5 -105h2l-20 111h205v-1434h-205v471q-47 -41 -117 -59t-141 -18q-86 0 -164 28.5t-136.5 88t-92 148.5t-33.5 210zM195 459q0 -133 50 -212t171 -79q78 0 139 15.5t119 41.5v465q-47 82 -107.5 123 t-165.5 41q-113 0 -157.5 -79t-48.5 -253v-63z" />
<glyph unicode="r" horiz-adv-x="839" d="M0 0v1024h205l-21 -111q59 76 132 105t151 29q80 0 155.5 -27t135.5 -78l-113 -174q-31 43 -77 64.5t-91 21.5q-104 0 -164.5 -41t-107.5 -123v-690h-205z" />
<glyph unicode="s" horiz-adv-x="942" d="M-20 174l143 143q72 -66 151.5 -102.5t174.5 -36.5q35 0 71.5 6t66 20.5t48 40t18.5 62.5q0 27 -14 47.5t-50 36t-95.5 25.5t-149.5 18q-63 6 -117.5 28.5t-94.5 60.5t-62.5 89.5t-22.5 116.5q0 80 36 140.5t91 99.5t124 58.5t134 19.5q121 0 220.5 -36t185.5 -108 l-129 -149q-66 45 -134.5 70.5t-142.5 25.5q-68 0 -122 -26.5t-54 -96.5q0 -29 13.5 -47t33 -28.5t43 -15.5t45.5 -7q90 -6 174 -18.5t149.5 -44t105.5 -93t40 -166.5q0 -86 -41 -147.5t-104.5 -100.5t-138 -57t-142.5 -18q-129 0 -245.5 52t-208.5 138z" />
<glyph unicode="t" horiz-adv-x="559" d="M-10 840v184h100v184l164 21h41v-205h106v-184h-106v-547q0 -57 32.5 -83t82.5 -26h57v-184h-80q-63 0 -117.5 21.5t-94.5 58.5t-62.5 89t-22.5 114v557h-100z" />
<glyph unicode="u" d="M0 502v502l164 20h41v-516q4 -174 49 -253t158 -79q102 0 161.5 39t106.5 117v672l164 20h41v-1024h-205l20 111h-2q-59 -72 -128.5 -99.5t-147.5 -27.5q-205 0 -313.5 139t-108.5 379z" />
<glyph unicode="v" horiz-adv-x="1009" d="M-10 1024h211q43 -190 108.5 -388t143.5 -370q78 172 144.5 370t109.5 388h211q-59 -270 -152.5 -526t-222.5 -498h-178q-129 242 -222.5 498t-152.5 526z" />
<glyph unicode="w" horiz-adv-x="1419" d="M-10 1024h211q43 -190 108.5 -388t143.5 -370q27 57 50 116.5t46 121.5q-47 127 -84 256t-66 264h211q10 -47 21.5 -94t25.5 -94q14 47 26.5 94t23.5 94h211q-29 -135 -67 -264t-85 -256q23 -61 47.5 -120.5t48.5 -117.5q78 172 144.5 370t109.5 388h211 q-59 -270 -152.5 -526t-222.5 -498h-178q-31 59 -59.5 117.5t-57.5 118.5q-27 -59 -55.5 -118t-58.5 -118h-178q-129 242 -222.5 498t-152.5 526z" />
<glyph unicode="x" horiz-adv-x="905" d="M-10 0q0 66 22.5 132.5t58 133t80 132t85.5 128.5q-41 61 -81 123t-72 125.5t-52.5 126t-20.5 123.5h217q0 -55 18.5 -105.5t45 -97.5t57.5 -91t53 -87q23 43 53.5 87t57.5 91t45 97.5t18 105.5h218q0 -61 -20.5 -123.5t-53.5 -126t-74 -125t-80 -123.5q41 -63 85 -128.5 t80 -132t59.5 -133t23.5 -132.5h-217q0 55 -18.5 105.5t-45 97.5t-57.5 91t-53 87l-21 49l-20 -49q-23 -43 -53.5 -87t-57 -91t-45 -97.5t-18.5 -105.5h-217z" />
<glyph unicode="y" horiz-adv-x="1009" d="M-10 1024h211q43 -190 108.5 -388t143.5 -370q78 172 144.5 370t109.5 388h211q-59 -270 -157.5 -526t-228.5 -498l-192 -410h-209l209 459q-119 231 -207 475t-143 500z" />
<glyph unicode="z" horiz-adv-x="800" d="M0 0v172q70 174 167 340t220 328h-367v184h660v-154q-123 -147 -244 -325t-209 -361h471v-184h-698z" />
<glyph unicode="{" horiz-adv-x="602" d="M0 559v184h16q47 2 77 29t30 80v315q0 61 22.5 113.5t62.5 89.5t94 58.5t118 21.5h80v-184h-58q-49 0 -81.5 -26t-32.5 -83v-315q0 -57 -19.5 -105.5t-54.5 -85.5q35 -37 54.5 -85t19.5 -105v-369q0 -57 32.5 -82.5t81.5 -25.5h58v-185h-80q-63 0 -117.5 21.5t-94.5 58.5 t-62.5 89t-22.5 114v369q0 57 -33 82.5t-82 25.5h-8z" />
<glyph unicode="|" horiz-adv-x="307" d="M0 -512v2028l164 20h41v-2048h-205z" />
<glyph unicode="}" horiz-adv-x="602" d="M0 -16h57q49 0 82 25.5t33 82.5v369q0 113 74 190q-74 78 -74 191v315q0 57 -33 83t-82 26h-57v184h80q63 0 117.5 -21.5t94.5 -58.5t62.5 -89t22.5 -114v-315q0 -57 32.5 -83t82.5 -26h8v-184h-19q-45 -4 -74.5 -29.5t-29.5 -78.5v-369q0 -61 -22.5 -113.5t-62.5 -89.5 t-94.5 -58.5t-117.5 -21.5h-80v185z" />
<glyph unicode="~" horiz-adv-x="962" d="M0 596v195q49 20 100.5 36.5t104.5 16.5q57 0 113.5 -17.5t111.5 -39t110.5 -39t114.5 -17.5q53 0 103.5 15.5t101.5 35.5v-192q-51 -20 -101 -35.5t-104 -15.5q-59 0 -115.5 17t-111.5 38.5t-110.5 39t-112.5 17.5q-53 0 -103.5 -16.5t-101.5 -38.5z" />
<glyph unicode="&#xa1;" horiz-adv-x="333" d="M0 1339q0 47 35 81t82 34t80.5 -34t33.5 -81t-33.5 -81.5t-80.5 -34.5t-82 34.5t-35 81.5zM12 -123v1229h205v-1208l-164 -21h-41z" />
<glyph unicode="&#xa2;" horiz-adv-x="931" d="M-10 516q0 98 24.5 184t71.5 156t115.5 116t154.5 64v115l164 20h41v-137q80 -20 147.5 -64t120.5 -104l-151 -137q-59 61 -117 88v-606q66 33 117 94l151 -137q-59 -63 -125.5 -107.5t-142.5 -62.5v-113h-205v109q-90 18 -158.5 66.5t-114.5 119t-69.5 156.5t-23.5 180z M197 516q0 -111 36.5 -192.5t122.5 -114.5v610q-88 -35 -123.5 -117t-35.5 -186z" />
<glyph unicode="&#xa3;" horiz-adv-x="1097" d="M-20 598v182h106q-20 66 -36.5 129.5t-16.5 134.5q0 80 30.5 153t87 129t137.5 90t181 34q61 0 143 -24.5t155 -77t123 -133t50 -195.5h-244q0 53 -20.5 93t-52 65.5t-72.5 39t-82 13.5q-39 0 -75 -12.5t-64.5 -36t-46 -58t-17.5 -80.5q0 -61 15.5 -127.5t31.5 -136.5 h197v-182h-160q2 -20 3 -38.5t1 -37.5q0 -74 -18.5 -149.5t-73.5 -153.5q166 45 329 42t343 -42l61 -219q-193 41 -380 47t-379 -47h-236v117h2l-2 2q25 55 49.5 105t44 98.5t30.5 98.5t11 105q0 18 -1 36t-3 36h-151z" />
<glyph unicode="&#xa4;" horiz-adv-x="913" d="M0 504l70 69q-47 84 -47 189q0 106 49 192l-72 72l145 145l66 -67q90 55 195 55q100 0 190 -57l70 69l145 -145l-74 -74q51 -86 51 -186q0 -53 -13 -101.5t-36 -89.5l72 -71l-145 -144l-68 66q-88 -53 -192 -53q-106 0 -195 53l-66 -66zM176 766q0 -49 18.5 -93t49 -76 t72.5 -51.5t90 -19.5q70 0 125 39t81 103q4 8 4 10q17 43 17 88q-4 47 -24.5 93t-57.5 81q-10 10 -21.5 18.5t-25.5 14.5l-23 12q-18 6 -36.5 10t-38.5 4q-37 0 -76 -14l-17.5 -7t-15.5 -7l-10 -6q-4 -4 -6 -4q-47 -33 -76 -84.5t-29 -110.5z" />
<glyph unicode="&#xa5;" horiz-adv-x="1040" d="M-20 1434h237q0 -90 25.5 -176.5t63.5 -169t82 -161.5t79 -153h4q35 74 79 153t82 161.5t63.5 168.5t25.5 177h237q0 -90 -23.5 -181.5t-62 -180.5t-86 -178t-96.5 -175h230v-182h-328l-10 -21v-125h338v-182h-338v-209h-226v209h-356v182h356v125q-8 12 -10 21h-346v182 h248q-49 86 -96.5 175t-86 178t-62 180t-23.5 182z" />
<glyph unicode="&#xa6;" horiz-adv-x="307" d="M0 328h205v-840h-205v840zM0 786v730l164 20h41v-750h-205z" />
<glyph unicode="&#xa7;" horiz-adv-x="1087" d="M2 174l143 143q72 -66 152 -102.5t174 -36.5q35 0 72 6t66.5 20.5t48 40t18.5 62.5q0 27 -14.5 47.5t-50.5 36t-95 25.5t-149 18q-63 6 -117.5 28.5t-94.5 60.5t-62.5 89.5t-22.5 116.5q0 86 40 148.5t103 101.5q-41 66 -41 154q0 80 36 140t91 99t124 58.5t134 19.5 q121 0 220.5 -36t185.5 -107l-129 -150q-66 45 -134.5 70.5t-142.5 25.5q-68 0 -122 -26.5t-54 -96.5q0 -29 13.5 -47t32.5 -28.5t43 -15.5t46 -7q90 -6 174 -18.5t149.5 -44t105.5 -93t40 -165.5q0 -86 -39 -145.5t-100 -98.5q16 -31 26.5 -71t10.5 -89q0 -86 -41 -147.5 t-104.5 -100.5t-138.5 -57t-142 -18q-129 0 -246 52t-209 138zM279 727q0 -29 13 -47t32.5 -28.5t43 -15.5t46.5 -7q68 -6 132 -13.5t122 -23.5q47 12 78.5 40t31.5 79q0 27 -14 47t-50 35.5t-95.5 25.5t-149.5 19q-16 2 -30.5 3t-28.5 5q-53 -6 -92 -34t-39 -85z" />
<glyph unicode="&#xa8;" horiz-adv-x="661" d="M0 1626q0 47 35 81t82 34t80.5 -34t33.5 -81t-33.5 -82t-80.5 -35t-82 35t-35 82zM328 1626q0 47 34.5 81t81.5 34t81 -34t34 -81t-33.5 -82t-81.5 -35q-47 0 -81.5 35t-34.5 82z" />
<glyph unicode="&#xa9;" horiz-adv-x="1527" d="M0 711q0 147 55.5 281t151.5 235.5t226 162t280 60.5q137 0 265 -59.5t227.5 -160t159.5 -233.5t60 -280q0 -152 -56 -286t-152.5 -233.5t-226.5 -156.5t-277 -57t-276.5 57t-226.5 155.5t-153.5 230.5t-56.5 284zM162 717q0 -119 43 -222.5t118.5 -181t175 -123 t214.5 -45.5q113 0 213 45.5t175 123t118 181t43 222.5q-4 109 -46 211t-114 182t-171.5 128t-217.5 48q-109 0 -209.5 -45t-176 -122t-120.5 -181t-45 -221zM391 715q0 78 22.5 145.5t64.5 117.5t102.5 78.5t138.5 28.5t144.5 -35.5t115.5 -88.5l-107 -97 q-33 35 -68.5 55.5t-78.5 20.5q-53 0 -89 -17.5t-58.5 -48t-31.5 -71.5t-9 -88q0 -100 43 -165t145 -65q45 0 82 23.5t65 58.5l107 -96q-55 -59 -118.5 -95t-141.5 -36q-80 0 -141.5 30.5t-103.5 82t-62.5 120t-20.5 142.5z" />
<glyph unicode="&#xab;" horiz-adv-x="1462" d="M18 621l545 518h285l-547 -518l547 -519h-285zM530 621l545 518h285l-547 -518l547 -519h-285z" />
<glyph unicode="&#xac;" horiz-adv-x="1021" d="M0 598v182h920v-483h-205v301h-715z" />
<glyph unicode="&#xad;" horiz-adv-x="1021" d="M0 598v182h920v-182h-920z" />
<glyph unicode="&#xae;" horiz-adv-x="1527" d="M0 711q0 147 55.5 281t151.5 235.5t226 162t280 60.5q137 0 265 -59.5t227.5 -160t159.5 -233.5t60 -280q0 -152 -56 -286t-152.5 -233.5t-226.5 -156.5t-277 -57t-276.5 57t-226.5 155.5t-153.5 230.5t-56.5 284zM162 717q0 -119 43 -222.5t118.5 -181t175 -123 t214.5 -45.5q113 0 213 45.5t175 123t118 181t43 222.5q-4 109 -46 211t-114 182t-171.5 128t-217.5 48q-109 0 -209.5 -45t-176 -122t-120.5 -181t-45 -221zM455 334v792h243q66 0 118 -21.5t88 -57t55.5 -84t19.5 -103.5q0 -133 -102 -203q61 -51 98 -129.5t37 -193.5 h-144q0 51 -17 100t-51 86t-84 60.5t-118 25.5v-272h-143zM598 748h100q57 0 96.5 27.5t39.5 84.5t-39 92t-97 35h-100v-239z" />
<glyph unicode="&#xb0;" horiz-adv-x="430" d="M0 1286q0 68 48 116t116 48t116 -48t48 -116t-48.5 -116t-115.5 -48q-68 0 -116 48t-48 116zM63 1286q0 -41 30 -70.5t71 -29.5t69.5 29.5t28.5 70.5t-28.5 69.5t-69.5 28.5t-71 -28.5t-30 -69.5z" />
<glyph unicode="&#xb1;" horiz-adv-x="1021" d="M0 0v182h920v-182h-920zM0 598v182h348v346l164 21h41v-367h367v-182h-367v-367h-205v367h-348z" />
<glyph unicode="&#xb2;" horiz-adv-x="589" d="M0 799v55q0 66 24.5 112t61.5 78.5t79 58t79 52.5t61.5 58.5t24.5 78.5q0 45 -28 67.5t-73 22.5q-33 0 -61.5 -21.5t-28.5 -62.5h-139q0 55 24.5 95.5t60.5 66t75 37.5t69 12q111 0 171.5 -61.5t60.5 -155.5q0 -84 -42 -135t-95.5 -88t-104.5 -68.5t-69 -74.5h305 l32 -127h-487z" />
<glyph unicode="&#xb3;" horiz-adv-x="557" d="M0 999h139q0 -35 29 -54t59 -19q41 0 69 20.5t28 59.5q0 37 -16.5 67.5t-55.5 34.5h-100l28 127h74q12 2 25.5 18.5t13.5 51.5q0 39 -22.5 58t-57.5 19q-74 -4 -74 -51h-129q0 76 55.5 127t147.5 51q102 0 156.5 -57t54.5 -147q0 -31 -13.5 -64t-37.5 -61 q41 -33 61.5 -79t20.5 -95q0 -90 -60.5 -148.5t-167.5 -58.5q-31 0 -69.5 11t-73.5 35.5t-59.5 62.5t-24.5 91z" />
<glyph unicode="&#xb4;" horiz-adv-x="456" d="M0 1509l145 232h209l-248 -232h-106z" />
<glyph unicode="&#xb5;" d="M0 -287v1291l164 20h41v-692q45 -78 104.5 -117t163.5 -39q113 0 158 79t49 253v496l164 20h41v-522q0 -240 -108.5 -379t-313.5 -139q-78 0 -147.5 27.5t-129.5 99.5h-2l21 -111v-287h-205z" />
<glyph unicode="&#xb6;" horiz-adv-x="1253" d="M-20 1094q0 72 25.5 134t74.5 108t117.5 72t154.5 26h799v-1434h-225v1214h-348v-1214h-226v741q-86 0 -154.5 29t-117.5 77t-74.5 111.5t-25.5 135.5z" />
<glyph unicode="&#xb7;" horiz-adv-x="468" d="M0 731q0 76 54.5 128t129.5 52q76 0 129.5 -52t53.5 -128t-53.5 -131t-129.5 -55q-37 0 -70.5 15t-59 41t-40 59.5t-14.5 70.5z" />
<glyph unicode="&#xb8;" horiz-adv-x="413" d="M0 -207l74 37q10 -12 31.5 -22.5t50.5 -10.5q31 0 46 13.5t15 31.5q0 23 -23.5 39.5t-66.5 16.5h-18l26 163h90l-14 -90q49 -14 74.5 -51t25.5 -78q0 -57 -42 -93t-113 -36q-53 0 -95.5 20.5t-60.5 59.5z" />
<glyph unicode="&#xb9;" horiz-adv-x="315" d="M2 1509h211v-694h-129v567h-49z" />
<glyph unicode="&#xba;" horiz-adv-x="651" d="M0 1165q0 70 16.5 133.5t50 109.5t84.5 73.5t123 27.5q68 0 119 -26.5t86 -72.5t52.5 -108.5t17.5 -136.5q0 -70 -15.5 -133t-49 -111.5t-85 -77t-125.5 -28.5q-68 0 -120 26.5t-85.5 74t-51 111t-17.5 138.5zM129 1165q0 -43 7 -84t24.5 -71.5t45 -50t68.5 -19.5 q80 0 113 66.5t33 158.5q0 35 -5 73t-21.5 70.5t-45.5 54t-74 21.5q-47 0 -74.5 -21.5t-44 -54t-21.5 -70.5t-5 -73z" />
<glyph unicode="&#xbb;" horiz-adv-x="1462" d="M18 102l545 519l-545 518h285l545 -518l-545 -519h-285zM530 102l545 519l-545 518h285l545 -518l-545 -519h-285z" />
<glyph unicode="&#xbf;" horiz-adv-x="1021" d="M0 213q0 94 35 161.5t86 120t112.5 95.5t112.5 89t86 102.5t35 136.5h205q0 -106 -34 -182.5t-86 -132.5t-111.5 -100t-112 -87t-86 -91.5t-33.5 -111.5q0 -115 73.5 -180.5t186.5 -65.5q61 0 104 24.5t71 60.5t40 76t12 71h224q0 -68 -33 -143.5t-92.5 -139 t-142.5 -105.5t-183 -42q-109 0 -196 34.5t-147 95t-93 141.5t-33 173zM451 1124q0 47 34.5 81t81.5 34t81 -34t34 -81t-34 -81.5t-81 -34.5t-81.5 34.5t-34.5 81.5z" />
<glyph unicode="&#xc0;" horiz-adv-x="1308" d="M-10 0q82 379 213 736.5t311 697.5h180q180 -340 310.5 -697.5t212.5 -736.5h-232q-16 72 -34.5 144.5t-39.5 146.5h-616q-20 -74 -38.5 -146.5t-35.5 -144.5h-231zM362 510h484q-53 164 -115.5 318.5t-128.5 293.5q-66 -139 -126 -293.5t-114 -318.5zM416 1741h209 l145 -232h-106z" />
<glyph unicode="&#xc1;" horiz-adv-x="1308" d="M-10 0h231q16 72 34.5 144.5t39.5 146.5h616q20 -74 39 -146.5t35 -144.5h232q-82 379 -212.5 736.5t-310.5 697.5h-180q-180 -340 -311 -697.5t-213 -736.5zM362 510q53 164 114 318.5t126 293.5q66 -139 128.5 -293.5t115.5 -318.5h-484zM477 1509l146 232h208 l-247 -232h-107z" />
<glyph unicode="&#xc2;" horiz-adv-x="1308" d="M-10 0h231q16 72 34.5 144.5t39.5 146.5h616q20 -74 39 -146.5t35 -144.5h232q-82 379 -212.5 736.5t-310.5 697.5h-180q-180 -340 -311 -697.5t-213 -736.5zM338 1509l186 224h160l186 -224h-165l-101 121l-100 -121h-166zM362 510q53 164 114 318.5t126 293.5 q66 -139 128.5 -293.5t115.5 -318.5h-484z" />
<glyph unicode="&#xc3;" horiz-adv-x="1308" d="M-10 0h231q16 72 34.5 144.5t39.5 146.5h616q20 -74 39 -146.5t35 -144.5h232q-82 379 -212.5 736.5t-310.5 697.5h-180q-180 -340 -311 -697.5t-213 -736.5zM346 1550v162q35 14 72 26.5t78 12.5q43 0 82.5 -12.5t78.5 -27.5t79 -27.5t83 -12.5q41 0 77 10.5t73 26.5 v-162q-37 -16 -74 -26.5t-76 -10.5q-43 0 -83 12.5t-80 28t-79.5 27.5t-80.5 12q-39 0 -76 -11t-74 -28zM362 510q53 164 114 318.5t126 293.5q66 -139 128.5 -293.5t115.5 -318.5h-484z" />
<glyph unicode="&#xc4;" horiz-adv-x="1308" d="M-10 0q82 379 213 736.5t311 697.5h180q180 -340 310.5 -697.5t212.5 -736.5h-232q-16 72 -34.5 144.5t-39.5 146.5h-616q-20 -74 -38.5 -146.5t-35.5 -144.5h-231zM328 1626q0 47 34.5 81t81.5 34t81 -34t34 -81t-33.5 -82t-81.5 -35q-47 0 -81.5 35t-34.5 82zM362 510 h484q-53 164 -115.5 318.5t-128.5 293.5q-66 -139 -126 -293.5t-114 -318.5zM655 1626q0 47 35 81t82 34t81 -34t34 -81t-34 -82t-81 -35t-82 35t-35 82z" />
<glyph unicode="&#xc5;" horiz-adv-x="1308" d="M-10 0q82 379 213 736.5t311 697.5h180q180 -340 310.5 -697.5t212.5 -736.5h-232q-16 72 -34.5 144.5t-39.5 146.5h-616q-20 -74 -38.5 -146.5t-35.5 -144.5h-231zM362 510h484q-53 164 -115.5 318.5t-128.5 293.5q-66 -139 -126 -293.5t-114 -318.5zM438 1673 q0 68 48.5 116t115.5 48q68 0 116 -48t48 -116t-48 -116t-116 -48t-116 48t-48 116zM528 1673q0 -31 21.5 -52.5t52.5 -21.5t52.5 21.5t21.5 52.5t-21.5 52.5t-52.5 21.5t-52.5 -21.5t-21.5 -52.5z" />
<glyph unicode="&#xc6;" horiz-adv-x="1558" d="M-10 0q82 379 213 736.5t311 697.5h942v-220h-688q61 -184 111 -374h516v-219h-461q23 -100 43 -199.5t39 -202.5h440v-219h-635q-10 72 -21.5 144.5t-25.5 146.5h-479q-20 -74 -38.5 -146.5t-35.5 -144.5h-231zM362 510h373q-33 156 -67.5 305.5t-75.5 284.5 q-61 -135 -119.5 -284.5t-110.5 -305.5z" />
<glyph unicode="&#xc7;" horiz-adv-x="1171" d="M-10 721q0 129 30.5 259t105.5 234.5t199 170t312 65.5q98 0 183 -24.5t153.5 -67.5t120 -101.5t84.5 -128.5l-199 -92q-39 78 -123 134.5t-219 56.5t-217 -49.5t-126 -124t-59.5 -163.5t-15.5 -169q0 -84 15.5 -174t59.5 -167t126 -126t217 -49q131 0 221 63.5 t152 153.5l172 -125q-61 -127 -191.5 -214t-316.5 -97l-2 -15q49 -14 74.5 -51t25.5 -78q0 -57 -42 -93t-114 -36q-53 0 -95 20.5t-60 59.5l74 37q10 -12 31.5 -22.5t49.5 -10.5q31 0 46.5 13.5t15.5 31.5q0 23 -23.5 39.5t-66.5 16.5h-19l15 88q-176 10 -291 78.5 t-182.5 172t-94 230.5t-26.5 254z" />
<glyph unicode="&#xc8;" d="M0 0v1434h885v-220h-660v-374h537v-219h-537v-402h660v-219h-885zM315 1741h209l146 -232h-107z" />
<glyph unicode="&#xc9;" d="M0 0h885v219h-660v402h537v219h-537v374h660v220h-885v-1434zM315 1509l146 232h209l-248 -232h-107z" />
<glyph unicode="&#xca;" d="M0 0h885v219h-660v402h537v219h-537v374h660v220h-885v-1434zM227 1509l187 224h159l187 -224h-166l-100 121l-101 -121h-166z" />
<glyph unicode="&#xcb;" d="M0 0v1434h885v-220h-660v-374h537v-219h-537v-402h660v-219h-885zM213 1626q0 47 35 81t82 34t80.5 -34t33.5 -81t-33.5 -82t-80.5 -35t-82 35t-35 82zM541 1626q0 47 34.5 81t81.5 34t81 -34t34 -81t-33.5 -82t-81.5 -35q-47 0 -81.5 35t-34.5 82z" />
<glyph unicode="&#xcc;" horiz-adv-x="327" d="M-53 1741h209l145 -232h-106zM0 0v1434h225v-1434h-225z" />
<glyph unicode="&#xcd;" horiz-adv-x="327" d="M-53 1509l145 232h209l-248 -232h-106zM0 0h225v1434h-225v-1434z" />
<glyph unicode="&#xce;" horiz-adv-x="327" d="M-152 1509l187 224h160l186 -224h-166l-100 121l-101 -121h-166zM0 0h225v1434h-225v-1434z" />
<glyph unicode="&#xcf;" horiz-adv-x="327" d="M-166 1626q0 47 35 81t82 34t81 -34t34 -81t-34 -82t-81 -35t-82 35t-35 82zM0 0v1434h225v-1434h-225zM162 1626q0 47 34.5 81t82.5 34q47 0 80.5 -34t33.5 -81t-33.5 -82t-80.5 -35t-82 35t-35 82z" />
<glyph unicode="&#xd0;" horiz-adv-x="1257" d="M-41 598v182h143v654h224q195 0 350 -56.5t264 -168t167 -276.5t58 -382q0 -121 -36.5 -221.5t-105.5 -174t-167 -114.5t-221 -41h-533v598h-143zM326 219h309q131 0 216 86t85 246q0 162 -42 287t-121 210t-192.5 128t-254.5 43v-439h286v-182h-286v-379z" />
<glyph unicode="&#xd1;" horiz-adv-x="1105" d="M0 0h225v1059q63 -119 125 -250t115 -266t99 -273.5t81 -269.5h359v1434h-226v-1090q-92 287 -219 557t-287 533h-272v-1434zM229 1550v162q35 14 72 26.5t78 12.5q43 0 83 -12.5t79 -27.5t78.5 -27.5t82.5 -12.5q41 0 77 10.5t73 26.5v-162q-37 -16 -74 -26.5t-76 -10.5 q-43 0 -82.5 12.5t-79.5 28t-80 27.5t-81 12q-39 0 -76 -11t-74 -28z" />
<glyph unicode="&#xd2;" horiz-adv-x="1363" d="M-10 721q0 150 38 283t116.5 232t199.5 156.5t287 57.5q156 0 275.5 -56.5t200.5 -154.5t123 -231.5t42 -286.5q0 -147 -37 -281.5t-115 -236t-198.5 -160.5t-290.5 -59q-160 0 -281 56t-200.5 154.5t-119.5 233.5t-40 293zM219 721q0 -98 20.5 -191.5t67.5 -166 t127 -115.5t197 -43q111 0 189.5 41t127.5 111.5t71.5 164.5t22.5 199q0 80 -14 168t-59 162.5t-126 124t-212 51.5q-133 -2 -214 -51.5t-125 -124t-58.5 -162.5t-14.5 -168zM463 1741h209l145 -232h-106z" />
<glyph unicode="&#xd3;" horiz-adv-x="1363" d="M-10 721q0 -158 40 -293t119.5 -233.5t200.5 -154.5t281 -56q170 0 290.5 59t198.5 160.5t115 235.5t37 282q0 154 -42 287t-123 231t-200.5 154.5t-275.5 56.5q-166 0 -287 -57.5t-199.5 -156.5t-116.5 -232.5t-38 -282.5zM219 721q0 80 14.5 168t58.5 162.5t125 124 t214 51.5q131 -2 212 -51.5t126 -124t59 -162.5t14 -168q0 -104 -22.5 -198.5t-71.5 -165t-128 -111.5t-189 -41q-117 0 -197 43t-127 115.5t-67.5 166t-20.5 191.5zM504 1509l145 232h209l-248 -232h-106z" />
<glyph unicode="&#xd4;" horiz-adv-x="1363" d="M-10 721q0 -158 40 -293t119.5 -233.5t200.5 -154.5t281 -56q170 0 290.5 59t198.5 160.5t115 235.5t37 282q0 154 -42 287t-123 231t-200.5 154.5t-275.5 56.5q-166 0 -287 -57.5t-199.5 -156.5t-116.5 -232.5t-38 -282.5zM219 721q0 80 14.5 168t58.5 162.5t125 124 t214 51.5q131 -2 212 -51.5t126 -124t59 -162.5t14 -168q0 -104 -22.5 -198.5t-71.5 -165t-128 -111.5t-189 -41q-117 0 -197 43t-127 115.5t-67.5 166t-20.5 191.5zM354 1509l187 224h159l187 -224h-166l-100 121l-101 -121h-166z" />
<glyph unicode="&#xd5;" horiz-adv-x="1363" d="M-10 721q0 -158 40 -293t119.5 -233.5t200.5 -154.5t281 -56q170 0 290.5 59t198.5 160.5t115 235.5t37 282q0 154 -42 287t-123 231t-200.5 154.5t-275.5 56.5q-166 0 -287 -57.5t-199.5 -156.5t-116.5 -232.5t-38 -282.5zM219 721q0 80 14.5 168t58.5 162.5t125 124 t214 51.5q131 -2 212 -51.5t126 -124t59 -162.5t14 -168q0 -104 -22.5 -198.5t-71.5 -165t-128 -111.5t-189 -41q-117 0 -197 43t-127 115.5t-67.5 166t-20.5 191.5zM317 1550v162q35 14 72 26.5t78 12.5q43 0 83 -12.5t79 -27.5t79 -27.5t83 -12.5q41 0 76.5 10.5 t72.5 26.5v-162q-37 -16 -74 -26.5t-75 -10.5q-43 0 -83 12.5t-80 28t-80 27.5t-81 12q-39 0 -76 -11t-74 -28z" />
<glyph unicode="&#xd6;" horiz-adv-x="1363" d="M-10 721q0 150 38 283t116.5 232t199.5 156.5t287 57.5q156 0 275.5 -56.5t200.5 -154.5t123 -231.5t42 -286.5q0 -147 -37 -281.5t-115 -236t-198.5 -160.5t-290.5 -59q-160 0 -281 56t-200.5 154.5t-119.5 233.5t-40 293zM219 721q0 -98 20.5 -191.5t67.5 -166 t127 -115.5t197 -43q111 0 189.5 41t127.5 111.5t71.5 164.5t22.5 199q0 80 -14 168t-59 162.5t-126 124t-212 51.5q-133 -2 -214 -51.5t-125 -124t-58.5 -162.5t-14.5 -168zM340 1626q0 47 35 81t82 34t80.5 -34t33.5 -81t-33.5 -82t-80.5 -35t-82 35t-35 82zM668 1626 q0 47 34.5 81t81.5 34t81 -34t34 -81t-34 -82t-81 -35t-81.5 35t-34.5 82z" />
<glyph unicode="&#xd7;" horiz-adv-x="882" d="M-20 393l260 262l-260 260l145 146l260 -262l260 262l146 -146l-261 -260l261 -262l-146 -143l-260 260l-260 -260z" />
<glyph unicode="&#xd8;" horiz-adv-x="1269" d="M-10 666q0 139 35.5 262t108.5 215t184.5 145t265.5 53q14 0 27.5 -1t25.5 -1l27 109h202l-37 -156q86 -37 150.5 -98t109 -143t67 -179.5t22.5 -205.5q0 -137 -34 -261t-105.5 -217.5t-184.5 -148.5t-270 -55q-18 0 -35 1t-33 3l-22 -94h-203l33 141q-168 76 -251 241.5 t-83 389.5zM203 666q0 -131 38 -246t134 -176l213 891h-4q-123 -2 -198 -48.5t-116 -115t-54 -150t-13 -155.5zM563 188h21q102 0 174.5 38t119 103.5t67 153t20.5 183.5q0 55 -7.5 115.5t-28 117.5t-56 106.5t-93.5 81.5z" />
<glyph unicode="&#xd9;" horiz-adv-x="1142" d="M0 557v877h225v-877q0 -59 11.5 -120.5t43 -114t90 -85t150.5 -32.5h21q139 12 206.5 111.5t67.5 240.5v877h225v-877q0 -121 -28.5 -221t-90 -174t-155.5 -120t-225 -58h-49q-125 6 -217.5 51t-154 120.5t-91 178t-29.5 223.5zM352 1741h209l146 -232h-107z" />
<glyph unicode="&#xda;" horiz-adv-x="1142" d="M0 557q0 -121 29.5 -223.5t91 -178t154 -120.5t217.5 -51h49q131 12 225 58t155.5 120t90 174t28.5 221v877h-225v-877q0 -141 -67.5 -240.5t-206.5 -111.5h-21q-92 0 -150.5 32.5t-90 85t-43 114t-11.5 120.5v877h-225v-877zM352 1509l146 232h209l-248 -232h-107z" />
<glyph unicode="&#xdb;" horiz-adv-x="1142" d="M0 557q0 -121 29.5 -223.5t91 -178t154 -120.5t217.5 -51h49q131 12 225 58t155.5 120t90 174t28.5 221v877h-225v-877q0 -141 -67.5 -240.5t-206.5 -111.5h-21q-92 0 -150.5 32.5t-90 85t-43 114t-11.5 120.5v877h-225v-877zM264 1509l187 224h159l187 -224h-166 l-101 121l-100 -121h-166z" />
<glyph unicode="&#xdc;" horiz-adv-x="1142" d="M0 557v877h225v-877q0 -59 11.5 -120.5t43 -114t90 -85t150.5 -32.5h21q139 12 206.5 111.5t67.5 240.5v877h225v-877q0 -121 -28.5 -221t-90 -174t-155.5 -120t-225 -58h-49q-125 6 -217.5 51t-154 120.5t-91 178t-29.5 223.5zM250 1626q0 47 34.5 81t82.5 34 q47 0 80.5 -34t33.5 -81t-33.5 -82t-80.5 -35t-82 35t-35 82zM578 1626q0 47 34.5 81t81.5 34t81 -34t34 -81t-34 -82t-81 -35t-81.5 35t-34.5 82z" />
<glyph unicode="&#xdd;" horiz-adv-x="1060" d="M-10 1434q0 -117 39 -234t96 -232.5t122.5 -229t119.5 -222.5v-516h225v516q53 109 118.5 222.5t123 229t96.5 232.5t39 234h-238q0 -90 -25.5 -176.5t-63.5 -169t-82 -161.5t-79 -153h-4q-35 74 -79 153t-81.5 161.5t-63.5 168.5t-26 177h-237zM305 1509l146 232h208 l-247 -232h-107z" />
<glyph unicode="&#xde;" horiz-adv-x="960" d="M0 -512v2028l164 20h41v-430h18q297 0 466 -165t169 -490q0 -72 -28.5 -151t-92 -145.5t-165 -110.5t-244.5 -44h-123v-512h-205zM205 219h123q86 0 143 24.5t93 60.5t50.5 76t14.5 71q0 231 -106.5 335.5t-299.5 104.5h-18v-672z" />
<glyph unicode="&#xdf;" horiz-adv-x="1107" d="M0 -287v1311q0 86 29.5 161t86 130t137.5 87t183 32h74q102 0 184 -33t138.5 -90.5t87 -132t30.5 -160.5q0 -162 -104 -270q78 -59 119 -146.5t41 -187.5q0 -86 -31 -162t-87.5 -131t-138 -88t-184.5 -33h-211v219h211q92 0 150.5 52.5t58.5 142.5t-58.5 148.5 t-150.5 58.5h-211v219h156q90 0 150.5 44t60.5 134q0 86 -58.5 141t-144.5 55h-90q-86 0 -144.5 -52t-58.5 -138v-1311h-225z" />
<glyph unicode="&#xe0;" horiz-adv-x="927" d="M0 295q0 70 23.5 129t66.5 103t104.5 70t139.5 26h287v63q-2 43 -22.5 75t-52.5 52.5t-70 30.5t-73 10q-61 0 -118.5 -15.5t-87.5 -66.5l-136 125q63 86 152.5 118t189.5 32q82 0 158 -25t134.5 -70t94 -111.5t35.5 -148.5v-692h-194l10 61q-43 -45 -106.5 -61 t-118.5 -16q-109 0 -187.5 24.5t-129 66.5t-75 98t-24.5 122zM195 295q0 -59 48 -93t173 -34q45 0 104.5 11t100.5 34v213h-287q-59 0 -99 -32t-40 -99zM287 1331h209l145 -231h-106z" />
<glyph unicode="&#xe1;" horiz-adv-x="927" d="M0 295q0 -66 24.5 -122t75 -98t129 -66.5t187.5 -24.5q55 0 118.5 16t106.5 61l-10 -61h194v692q0 82 -35.5 148.5t-94 111.5t-134.5 70t-158 25q-100 0 -189 -32t-153 -118l136 -125q31 51 88 66.5t118 15.5q35 0 73 -10t70 -30.5t52 -52.5t23 -75v-63h-287 q-78 0 -139.5 -26t-104.5 -70t-66.5 -103t-23.5 -129zM195 295q0 68 39.5 99.5t99.5 31.5h287v-213q-41 -23 -100.5 -34t-104.5 -11q-125 0 -173 34t-48 93zM287 1100l145 231h209l-248 -231h-106z" />
<glyph unicode="&#xe2;" horiz-adv-x="927" d="M0 295q0 -66 24.5 -122t75 -98t129 -66.5t187.5 -24.5q55 0 118.5 16t106.5 61l-10 -61h194v692q0 82 -35.5 148.5t-94 111.5t-134.5 70t-158 25q-100 0 -189 -32t-153 -118l136 -125q31 51 88 66.5t118 15.5q35 0 73 -10t70 -30.5t52 -52.5t23 -75v-63h-287 q-78 0 -139.5 -26t-104.5 -70t-66.5 -103t-23.5 -129zM195 295q0 68 39.5 99.5t99.5 31.5h287v-213q-41 -23 -100.5 -34t-104.5 -11q-125 0 -173 34t-48 93zM197 1100l186 223h160l186 -223h-166l-100 121l-101 -121h-165z" />
<glyph unicode="&#xe3;" horiz-adv-x="927" d="M0 295q0 -66 24.5 -122t75 -98t129 -66.5t187.5 -24.5q55 0 118.5 16t106.5 61l-10 -61h194v692q0 82 -35.5 148.5t-94 111.5t-134.5 70t-158 25q-100 0 -189 -32t-153 -118l136 -125q31 51 88 66.5t118 15.5q35 0 73 -10t70 -30.5t52 -52.5t23 -75v-63h-287 q-78 0 -139.5 -26t-104.5 -70t-66.5 -103t-23.5 -129zM152 1141v162q35 14 71.5 26t77.5 12q43 0 83 -12t79 -27.5t79 -27.5t83 -12q41 0 76.5 10t72.5 26v-161q-37 -16 -73.5 -26.5t-75.5 -10.5q-43 0 -83 12t-80 27.5t-80 28t-81 12.5q-39 0 -76 -11.5t-73 -27.5zM195 295 q0 68 39.5 99.5t99.5 31.5h287v-213q-41 -23 -100.5 -34t-104.5 -11q-125 0 -173 34t-48 93z" />
<glyph unicode="&#xe4;" horiz-adv-x="927" d="M0 295q0 70 23.5 129t66.5 103t104.5 70t139.5 26h287v63q-2 43 -22.5 75t-52.5 52.5t-70 30.5t-73 10q-61 0 -118.5 -15.5t-87.5 -66.5l-136 125q63 86 152.5 118t189.5 32q82 0 158 -25t134.5 -70t94 -111.5t35.5 -148.5v-692h-194l10 61q-43 -45 -106.5 -61 t-118.5 -16q-109 0 -187.5 24.5t-129 66.5t-75 98t-24.5 122zM184 1217q0 47 35 80.5t82 33.5t81 -33.5t34 -80.5t-34 -82t-81 -35t-82 35t-35 82zM195 295q0 -59 48 -93t173 -34q45 0 104.5 11t100.5 34v213h-287q-59 0 -99 -32t-40 -99zM512 1217q0 47 35 80.5t82 33.5 t80.5 -33.5t33.5 -80.5t-33.5 -82t-80.5 -35t-82 35t-35 82z" />
<glyph unicode="&#xe5;" horiz-adv-x="927" d="M0 295q0 70 23.5 129t66.5 103t104.5 70t139.5 26h287v63q-2 43 -22.5 75t-52.5 52.5t-70 30.5t-73 10q-61 0 -118.5 -15.5t-87.5 -66.5l-136 125q63 86 152.5 118t189.5 32q82 0 158 -25t134.5 -70t94 -111.5t35.5 -148.5v-692h-194l10 61q-43 -45 -106.5 -61 t-118.5 -16q-109 0 -187.5 24.5t-129 66.5t-75 98t-24.5 122zM195 295q0 -59 48 -93t173 -34q45 0 104.5 11t100.5 34v213h-287q-59 0 -99 -32t-40 -99zM299 1264q0 68 48 115.5t116 47.5t116 -48t48 -115q0 -68 -48.5 -116t-115.5 -48q-68 0 -116 48t-48 116zM389 1264 q0 -31 21.5 -52.5t52.5 -21.5t52.5 21.5t21.5 52.5t-21.5 52t-52.5 21t-52.5 -21t-21.5 -52z" />
<glyph unicode="&#xe6;" horiz-adv-x="1656" d="M0 295q0 70 23.5 129t66.5 103t104.5 70t139.5 26h287v63q-2 43 -22.5 75t-52.5 52.5t-70 30.5t-73 10q-61 0 -118.5 -15.5t-87.5 -66.5l-136 125q63 86 152.5 118t189.5 32q102 0 194.5 -38t152.5 -110q61 68 146 108t191 40q109 0 196 -41t147.5 -113t92 -169 t31.5 -208q0 -18 -1 -36.5t-3 -39.5h-725v-6q16 -111 84 -177.5t201 -66.5q72 0 130 31t101 78l152 -137q-86 -84 -180 -131t-211 -47q-162 0 -277 79v-63h-194l10 61q-43 -45 -106.5 -61t-118.5 -16q-109 0 -187.5 24.5t-129 66.5t-75 98t-24.5 122zM195 295q0 -59 48 -93 t173 -34q45 0 104.5 11t100.5 34v199q-2 4 -3 14h-284q-59 0 -99 -32t-40 -99zM829 629h508q-20 98 -79.5 153.5t-170.5 55.5t-174 -54.5t-84 -154.5z" />
<glyph unicode="&#xe7;" horiz-adv-x="931" d="M-10 516q0 111 31.5 208t92 169t147.5 113t196 41q113 0 208 -51.5t164 -129.5l-151 -137q-47 51 -98.5 80t-112.5 29q-76 0 -128 -26t-84 -69t-45 -101t-13 -126q0 -72 15 -131t48 -102t84 -68t123 -25q66 0 118 34t93 81l151 -137q-78 -80 -162.5 -130t-189.5 -54 l-2 -13q49 -14 74.5 -51t25.5 -78q0 -57 -41.5 -93t-113.5 -36q-53 0 -95 20.5t-61 59.5l74 37q10 -12 31.5 -22.5t50.5 -10.5q31 0 46 13.5t15 31.5q0 23 -23.5 39.5t-66.5 16.5h-18l14 90q-98 12 -173 60t-124 120t-74.5 161t-25.5 187z" />
<glyph unicode="&#xe8;" horiz-adv-x="1034" d="M-10 516q0 106 32.5 202.5t94 169.5t149.5 116t199 43q109 0 196 -41t147 -113t92 -169t32 -208q0 -18 -1 -36.5t-3 -39.5h-727q16 -113 83.5 -181.5t202.5 -68.5q72 0 130.5 31t101.5 78l151 -137q-86 -84 -180 -131t-211 -47q-109 0 -197.5 42t-154.5 114.5t-101.5 169 t-35.5 206.5zM207 629h508q-20 98 -79.5 153.5t-170.5 55.5t-174.5 -54.5t-83.5 -154.5zM272 1331h209l146 -231h-107z" />
<glyph unicode="&#xe9;" horiz-adv-x="1034" d="M-10 491.5q0 -12.5 2 -24.5v-13.5t2 -13.5q10 -94 46 -177t96.5 -145.5t146.5 -98t196 -35.5q117 0 211 47t180 131l-151 137q-43 -47 -101.5 -78t-130.5 -31q-135 0 -202.5 69t-83.5 181h727q2 20 3 39t1 37q0 111 -32 208t-92 169t-147.5 113t-195.5 41 q-111 0 -199 -43t-149.5 -116t-94 -169t-32.5 -203v-24.5zM207 629q20 100 83.5 154.5t174.5 54.5t170 -55.5t80 -153.5h-508zM293 1100l145 231h209l-248 -231h-106z" />
<glyph unicode="&#xea;" horiz-adv-x="1034" d="M-10 491.5q0 -12.5 2 -24.5v-13.5t2 -13.5q10 -94 46 -177t96.5 -145.5t146.5 -98t196 -35.5q117 0 211 47t180 131l-151 137q-43 -47 -101.5 -78t-130.5 -31q-135 0 -202.5 69t-83.5 181h727q2 20 3 39t1 37q0 111 -32 208t-92 169t-147.5 113t-195.5 41 q-111 0 -199 -43t-149.5 -116t-94 -169t-32.5 -203v-24.5zM205 1100l186 223h160l186 -223h-166l-100 121l-100 -121h-166zM207 629q20 100 83.5 154.5t174.5 54.5t170 -55.5t80 -153.5h-508z" />
<glyph unicode="&#xeb;" horiz-adv-x="1034" d="M-10 491.5v24.5q0 106 32.5 202.5t94 169.5t149.5 116t199 43q109 0 196 -41t147 -113t92 -169t32 -208q0 -18 -1 -36.5t-3 -39.5h-727q16 -113 83.5 -181.5t202.5 -68.5q72 0 130.5 31t101.5 78l151 -137q-86 -84 -180 -131t-211 -47q-111 0 -196.5 35.5t-146 98 t-96.5 145.5t-46 177q-2 6 -2 13.5v13.5q-2 12 -2 24.5zM170 1217q0 47 35 80.5t82 33.5t80.5 -33.5t33.5 -80.5t-33.5 -82t-80.5 -35t-82 35t-35 82zM207 629h508q-20 98 -79.5 153.5t-170.5 55.5t-174.5 -54.5t-83.5 -154.5zM498 1217q0 47 34.5 80.5t81.5 33.5t81 -33.5 t34 -80.5t-33.5 -82t-81.5 -35q-47 0 -81.5 35t-34.5 82z" />
<glyph unicode="&#xec;" horiz-adv-x="307" d="M-63 1331h208l146 -231h-107zM0 0v1024h205v-1024h-205z" />
<glyph unicode="&#xed;" horiz-adv-x="307" d="M-63 1100l145 231h209l-248 -231h-106zM0 0h205v1024h-205v-1024z" />
<glyph unicode="&#xee;" horiz-adv-x="307" d="M-154 1100l187 223h160l186 -223h-166l-100 121l-101 -121h-166zM0 0h205v1024h-205v-1024z" />
<glyph unicode="&#xef;" horiz-adv-x="307" d="M-172 1217q0 47 35 80.5t82 33.5t80.5 -33.5t33.5 -80.5t-33.5 -82t-80.5 -35t-82 35t-35 82zM0 0v1024h205v-1024h-205zM156 1217q0 47 34.5 80.5t81.5 33.5t81 -33.5t34 -80.5t-34 -82t-81 -35t-81.5 35t-34.5 82z" />
<glyph unicode="&#xf0;" horiz-adv-x="1032" d="M-10 449q0 88 30.5 167.5t89 141t143.5 98.5t191 37q109 0 211 -51q-23 72 -54.5 131t-68.5 108l-143 -80l-90 160l102 58q-39 31 -75.5 52t-69.5 36l145 143q104 -47 195 -123l149 86l91 -160l-109 -61q92 -123 147.5 -285t55.5 -370q0 -127 -34 -228.5t-95.5 -174.5 t-148.5 -111.5t-193 -38.5q-109 0 -196 34.5t-147.5 96t-93 146.5t-32.5 188zM219 449q0 -125 67.5 -185.5t172.5 -60.5q63 0 109 28.5t77 74.5t45.5 106.5t14.5 124.5q0 18 -1.5 36.5t-3.5 36.5q-55 29 -117.5 48.5t-138.5 19.5q-59 0 -102 -20.5t-70.5 -53.5t-40 -74 t-12.5 -81z" />
<glyph unicode="&#xf1;" horiz-adv-x="991" d="M0 0h205v690q47 82 107.5 123t164.5 41q113 0 158 -79t49 -253v-522h205v528q0 240 -108.5 379.5t-313.5 139.5q-78 0 -150.5 -29t-132.5 -105l21 111h-205v-1024zM143 1141v162q35 14 72 26t78 12q43 0 83 -12t79 -27.5t78.5 -27.5t82.5 -12q41 0 77 10t73 26v-161 q-37 -16 -74 -26.5t-76 -10.5q-43 0 -82.5 12t-79.5 27.5t-80 28t-81 12.5q-39 0 -76 -11.5t-74 -27.5z" />
<glyph unicode="&#xf2;" horiz-adv-x="1005" d="M-10 506q0 104 32.5 198.5t92 166t145.5 113.5t195 42q106 0 192 -40t144.5 -110.5t90 -166t31.5 -203.5q0 -104 -28.5 -198.5t-87 -166t-144.5 -114.5t-198 -43q-117 0 -204 43t-145.5 114.5t-87 166t-28.5 198.5zM193 506q0 -70 14 -128.5t46 -101.5t81 -66.5 t121 -23.5q68 0 115.5 30t79.5 76t46.5 102.5t14.5 111.5q0 145 -58.5 230t-197.5 85q-135 0 -198.5 -81.5t-63.5 -233.5zM285 1331h209l145 -231h-107z" />
<glyph unicode="&#xf3;" horiz-adv-x="1005" d="M-10 506q0 104 32.5 198.5t92 166t145.5 113.5t195 42q106 0 192 -40t144.5 -110.5t90 -166t31.5 -203.5q0 -104 -28.5 -198.5t-87 -166t-144.5 -114.5t-198 -43q-117 0 -204 43t-145.5 114.5t-87 166t-28.5 198.5zM193 506q0 -70 14 -128.5t46 -101.5t81 -66.5 t121 -23.5q68 0 115.5 30t79.5 76t46.5 102.5t14.5 111.5q0 145 -58.5 230t-197.5 85q-135 0 -198.5 -81.5t-63.5 -233.5zM285 1100l145 231h209l-248 -231h-106z" />
<glyph unicode="&#xf4;" horiz-adv-x="1005" d="M-10 506q0 104 32.5 198.5t92 166t145.5 113.5t195 42q106 0 192 -40t144.5 -110.5t90 -166t31.5 -203.5q0 -104 -28.5 -198.5t-87 -166t-144.5 -114.5t-198 -43q-117 0 -204 43t-145.5 114.5t-87 166t-28.5 198.5zM193 506q0 -70 14 -128.5t46 -101.5t81 -66.5 t121 -23.5q68 0 115.5 30t79.5 76t46.5 102.5t14.5 111.5q0 145 -58.5 230t-197.5 85q-135 0 -198.5 -81.5t-63.5 -233.5zM195 1100l186 223h160l186 -223h-166l-100 121l-101 -121h-165z" />
<glyph unicode="&#xf5;" horiz-adv-x="1005" d="M-10 506q0 104 32.5 198.5t92 166t145.5 113.5t195 42q106 0 192 -40t144.5 -110.5t90 -166t31.5 -203.5q0 -104 -28.5 -198.5t-87 -166t-144.5 -114.5t-198 -43q-117 0 -204 43t-145.5 114.5t-87 166t-28.5 198.5zM150 1141v162q35 14 71.5 26t77.5 12q43 0 83 -12 t79 -27.5t79 -27.5t83 -12q41 0 76.5 10t72.5 26v-161q-37 -16 -73.5 -26.5t-75.5 -10.5q-43 0 -83 12t-80 27.5t-80 28t-81 12.5q-39 0 -76 -11.5t-73 -27.5zM193 506q0 -70 14 -128.5t46 -101.5t81 -66.5t121 -23.5q68 0 115.5 30t79.5 76t46.5 102.5t14.5 111.5 q0 145 -58.5 230t-197.5 85q-135 0 -198.5 -81.5t-63.5 -233.5z" />
<glyph unicode="&#xf6;" horiz-adv-x="1005" d="M-10 506q0 104 32.5 198.5t92 166t145.5 113.5t195 42q106 0 192 -40t144.5 -110.5t90 -166t31.5 -203.5q0 -104 -28.5 -198.5t-87 -166t-144.5 -114.5t-198 -43q-117 0 -204 43t-145.5 114.5t-87 166t-28.5 198.5zM182 1217q0 47 35 80.5t82 33.5t81 -33.5t34 -80.5 t-34 -82t-81 -35t-82 35t-35 82zM193 506q0 -70 14 -128.5t46 -101.5t81 -66.5t121 -23.5q68 0 115.5 30t79.5 76t46.5 102.5t14.5 111.5q0 145 -58.5 230t-197.5 85q-135 0 -198.5 -81.5t-63.5 -233.5zM510 1217q0 47 35 80.5t82 33.5t80.5 -33.5t33.5 -80.5t-33.5 -82 t-80.5 -35t-82 35t-35 82z" />
<glyph unicode="&#xf7;" horiz-adv-x="1021" d="M0 598v182h920v-182h-920zM330 285q0 47 34.5 80.5t81.5 33.5t81 -33.5t34 -80.5t-33.5 -82t-81.5 -35q-47 0 -81.5 35t-34.5 82zM330 1104q0 47 34.5 81t81.5 34t81 -34t34 -81t-33.5 -82t-81.5 -35q-47 0 -81.5 35t-34.5 82z" />
<glyph unicode="&#xf8;" horiz-adv-x="1005" d="M-10 506q0 104 32.5 198.5t92 166t145.5 113.5t195 42h15t17 -2l60 248h203l-74 -303q115 -63 176 -186.5t61 -276.5q0 -104 -28.5 -198.5t-87 -166t-144.5 -114.5t-198 -43h-15l-63 -267h-203l74 312q-129 61 -193.5 191t-64.5 286zM193 506q0 -92 24.5 -163t79.5 -112 l141 590q-127 -4 -186 -86t-59 -229zM489 188q57 8 99.5 39t70 76t40 98.5t12.5 104.5q0 86 -19.5 150.5t-64.5 105.5z" />
<glyph unicode="&#xf9;" d="M0 502v502l164 20h41v-516q4 -174 49 -253t158 -79q102 0 161.5 39t106.5 117v672l164 20h41v-1024h-205l20 111h-2q-59 -72 -128.5 -99.5t-147.5 -27.5q-205 0 -313.5 139t-108.5 379zM315 1331h209l146 -231h-107z" />
<glyph unicode="&#xfa;" d="M0 502q0 -240 108.5 -379t313.5 -139q78 0 147.5 27.5t128.5 99.5h2l-20 -111h205v1024h-41l-164 -20v-672q-47 -78 -106.5 -117t-161.5 -39q-113 0 -158 79t-49 253v516h-41l-164 -20v-502zM315 1100l146 231h209l-248 -231h-107z" />
<glyph unicode="&#xfb;" d="M0 502q0 -240 108.5 -379t313.5 -139q78 0 147.5 27.5t128.5 99.5h2l-20 -111h205v1024h-41l-164 -20v-672q-47 -78 -106.5 -117t-161.5 -39q-113 0 -158 79t-49 253v516h-41l-164 -20v-502zM227 1100l187 223h159l187 -223h-166l-100 121l-101 -121h-166z" />
<glyph unicode="&#xfc;" d="M0 502v502l164 20h41v-516q4 -174 49 -253t158 -79q102 0 161.5 39t106.5 117v672l164 20h41v-1024h-205l20 111h-2q-59 -72 -128.5 -99.5t-147.5 -27.5q-205 0 -313.5 139t-108.5 379zM213 1217q0 47 35 80.5t82 33.5t80.5 -33.5t33.5 -80.5t-33.5 -82t-80.5 -35t-82 35 t-35 82zM541 1217q0 47 34.5 80.5t81.5 33.5t81 -33.5t34 -80.5t-33.5 -82t-81.5 -35q-47 0 -81.5 35t-34.5 82z" />
<glyph unicode="&#xfd;" horiz-adv-x="864" d="M-10 1024h217q0 -55 18.5 -105.5t45 -97.5t57 -91t53.5 -87q23 43 53.5 87t57 91t45 97.5t18.5 105.5h217q0 -74 -28.5 -148.5t-72.5 -150.5t-94.5 -149.5t-93.5 -145.5v-430h-204v430q-43 72 -93.5 145.5t-94.5 149.5t-72.5 150.5t-28.5 148.5zM213 1100l145 231h209 l-248 -231h-106z" />
<glyph unicode="&#xfe;" horiz-adv-x="991" d="M0 -389v1802l164 21h41v-498q57 61 123.5 86t138.5 25q205 0 313.5 -139.5t108.5 -379.5v-69q0 -121 -34 -210t-92 -148.5t-136 -88t-164 -28.5q-72 0 -141.5 18t-116.5 59v-450h-205zM205 225q57 -27 118.5 -42t139.5 -15q121 0 171 79t50 212v63q-4 174 -49 253 t-158 79q-104 0 -164.5 -41t-107.5 -123v-465z" />
<glyph unicode="&#xff;" horiz-adv-x="864" d="M-10 1024h217q0 -55 18.5 -105.5t45 -97.5t57 -91t53.5 -87q23 43 53.5 87t57 91t45 97.5t18.5 105.5h217q0 -74 -28.5 -148.5t-72.5 -150.5t-94.5 -149.5t-93.5 -145.5v-430h-204v430q-43 72 -93.5 145.5t-94.5 149.5t-72.5 150.5t-28.5 148.5zM111 1217q0 47 34.5 80.5 t81.5 33.5t81 -33.5t34 -80.5t-34 -82t-81 -35t-81.5 35t-34.5 82zM438 1217q0 47 35 80.5t82 33.5t81 -33.5t34 -80.5t-34 -82t-81 -35t-82 35t-35 82z" />
<glyph unicode="&#x152;" horiz-adv-x="1673" d="M-10 721q0 150 38 283t116.5 232t199.5 156.5t287 57.5q80 0 157 -16h783v-220h-557v-374h413v-219h-413v-402h557v-219h-783q-78 -16 -157 -16q-160 0 -281 56t-200.5 154.5t-119.5 233.5t-40 293zM219 721q0 -98 20.5 -191.5t67.5 -166t127 -115.5t197 -43q92 0 157 26 v969q-35 12 -74.5 19.5t-82.5 7.5q-133 -2 -214 -51.5t-125 -124t-58.5 -162.5t-14.5 -168z" />
<glyph unicode="&#x153;" horiz-adv-x="1755" d="M-10 506q0 104 32.5 198.5t92 166t145.5 113.5t195 42q117 0 206 -47t148 -129q61 90 157.5 143.5t219.5 53.5q109 0 195.5 -41t147 -113t92.5 -169t32 -208q0 -18 -1 -36.5t-3 -39.5h-727q16 -113 83.5 -181.5t202.5 -68.5q72 0 130.5 31t101.5 78l151 -137 q-86 -84 -180 -131t-211 -47q-131 0 -227 49t-158 133q-57 -84 -147 -133t-213 -49q-117 0 -204 43t-145.5 114.5t-87 165.5t-28.5 199zM193 506q0 -70 14 -128.5t46 -101.5t81 -66.5t121 -23.5q68 0 115.5 30t79.5 76t46.5 102.5t14.5 111.5v14q-4 139 -62.5 220t-193.5 81 t-198.5 -81.5t-63.5 -233.5zM928 629h508q-20 98 -79.5 153.5t-170.5 55.5t-174.5 -54.5t-83.5 -154.5z" />
<glyph unicode="&#x178;" horiz-adv-x="1060" d="M-10 1434h237q0 -90 26 -176.5t63.5 -169t81.5 -161.5t79 -153h4q35 74 79 153t82 161.5t63.5 168.5t25.5 177h238q0 -117 -39 -234t-96.5 -232.5t-123 -229t-118.5 -222.5v-516h-225v516q-53 109 -119 222.5t-123 229t-96 232.5t-39 234zM209 1626q0 47 35 81t82 34 t80.5 -34t33.5 -81t-33.5 -82t-80.5 -35t-82 35t-35 82zM537 1626q0 47 34.5 81t81.5 34t81 -34t34 -81t-34 -82t-81 -35t-81.5 35t-34.5 82z" />
<glyph unicode="&#x2c6;" horiz-adv-x="634" d="M0 1509l186 224h160l186 -224h-165l-101 121l-100 -121h-166z" />
<glyph unicode="&#x2dc;" horiz-adv-x="724" d="M0 1550v162q35 14 72 26.5t78 12.5q43 0 82.5 -12.5t78.5 -27.5t79 -27.5t83 -12.5q41 0 77 10.5t73 26.5v-162q-37 -16 -74 -26.5t-76 -10.5q-43 0 -83 12.5t-80 28t-80 27.5t-80 12q-39 0 -76 -11t-74 -28z" />
<glyph unicode="&#x2000;" horiz-adv-x="918" />
<glyph unicode="&#x2001;" horiz-adv-x="1837" />
<glyph unicode="&#x2002;" horiz-adv-x="918" />
<glyph unicode="&#x2003;" horiz-adv-x="1837" />
<glyph unicode="&#x2004;" horiz-adv-x="612" />
<glyph unicode="&#x2005;" horiz-adv-x="459" />
<glyph unicode="&#x2006;" horiz-adv-x="306" />
<glyph unicode="&#x2007;" horiz-adv-x="306" />
<glyph unicode="&#x2008;" horiz-adv-x="229" />
<glyph unicode="&#x2009;" horiz-adv-x="367" />
<glyph unicode="&#x200a;" horiz-adv-x="102" />
<glyph unicode="&#x2010;" horiz-adv-x="1021" d="M0 598v182h920v-182h-920z" />
<glyph unicode="&#x2011;" horiz-adv-x="1021" d="M0 598v182h920v-182h-920z" />
<glyph unicode="&#x2012;" horiz-adv-x="1021" d="M0 598v182h920v-182h-920z" />
<glyph unicode="&#x2013;" horiz-adv-x="878" d="M0 598v182h776v-182h-776z" />
<glyph unicode="&#x2014;" horiz-adv-x="1226" d="M0 598v182h1124v-182h-1124z" />
<glyph unicode="&#x2018;" horiz-adv-x="370" d="M0 1264l162 272h106l-100 -272h-168z" />
<glyph unicode="&#x2019;" horiz-adv-x="370" d="M0 1264l100 272h168l-162 -272h-106z" />
<glyph unicode="&#x201a;" horiz-adv-x="370" d="M0 -170l100 272h168l-162 -272h-106z" />
<glyph unicode="&#x201c;" horiz-adv-x="636" d="M0 1264l162 272h106l-100 -272h-168zM266 1264l162 272h107l-101 -272h-168z" />
<glyph unicode="&#x201d;" horiz-adv-x="636" d="M0 1264l100 272h168l-162 -272h-106zM266 1264l101 272h168l-162 -272h-107z" />
<glyph unicode="&#x201e;" horiz-adv-x="636" d="M0 -170l100 272h168l-162 -272h-106zM266 -170l101 272h168l-162 -272h-107z" />
<glyph unicode="&#x2022;" horiz-adv-x="333" d="M0 735q0 47 35 81t82 34t80.5 -34t33.5 -81t-33.5 -82t-80.5 -35t-82 35t-35 82z" />
<glyph unicode="&#x2026;" horiz-adv-x="989" d="M0 100q0 47 35 81t82 34t80.5 -34t33.5 -81t-33.5 -81.5t-80.5 -34.5t-82 34.5t-35 81.5zM328 100q0 47 34.5 81t81.5 34t81 -34t34 -81t-33.5 -81.5t-81.5 -34.5q-47 0 -81.5 34.5t-34.5 81.5zM655 100q0 47 35 81t82 34t81 -34t34 -81t-34 -81.5t-81 -34.5t-82 34.5 t-35 81.5z" />
<glyph unicode="&#x202f;" horiz-adv-x="367" />
<glyph unicode="&#x2039;" horiz-adv-x="950" d="M18 621l545 518h285l-547 -518l547 -519h-285z" />
<glyph unicode="&#x203a;" horiz-adv-x="950" d="M18 102l545 519l-545 518h285l545 -518l-545 -519h-285z" />
<glyph unicode="&#x205f;" horiz-adv-x="459" />
<glyph unicode="&#x20ac;" horiz-adv-x="1505" d="M0 434v182h215q-4 27 -4 52.5v52.5v41h-211v182h233q20 100 65.5 191.5t121.5 161t183.5 111.5t254.5 42q98 0 183 -24.5t154 -67.5t120 -101.5t84 -128.5l-199 -92q-39 78 -123 134.5t-219 56.5q-90 0 -156.5 -22.5t-112.5 -61.5t-76 -90.5t-46 -108.5h453v-182h-480 q-2 -10 -1 -20.5t1 -20.5q0 -27 1 -52.5t3 -52.5h476v-182h-433q39 -96 126 -162.5t245 -66.5q131 0 221 63.5t152 153.5l172 -125q-33 -66 -84 -123t-121 -99t-155 -66.5t-185 -24.5q-139 0 -243.5 35.5t-178.5 97t-120 143.5t-70 174h-246z" />
<glyph unicode="&#x2122;" horiz-adv-x="788" d="M0 1350v84h297v-84h-104v-326h-87v326h-106zM346 1024v410h109q16 -31 30.5 -63t28.5 -64q29 70 61 127h111v-410h-86v272q-10 -23 -18.5 -45t-18.5 -45h-96l-37 90v-272h-84z" />
<glyph unicode="&#x25fc;" horiz-adv-x="1024" d="M0 0v1024h1024v-1024h-1024z" />
</font>
</defs>
</svg>
